<svg xmlns="http://www.w3.org/2000/svg" width="202" height="60" viewBox="0 0 202 60">
  <defs>
    <linearGradient id="button-play-store-en-a" x1="61.503%" x2="25.504%" y1="4.948%" y2="71.907%">
      <stop offset="0%" stop-color="#00A0FF"/>
      <stop offset="1%" stop-color="#00A1FF"/>
      <stop offset="26%" stop-color="#00BEFF"/>
      <stop offset="51%" stop-color="#00D2FF"/>
      <stop offset="76%" stop-color="#00DFFF"/>
      <stop offset="100%" stop-color="#00E3FF"/>
    </linearGradient>
    <linearGradient id="button-play-store-en-b" x1="107.685%" x2="-130.64%" y1="50%" y2="50%">
      <stop offset="0%" stop-color="#FFE000"/>
      <stop offset="41%" stop-color="#FFBD00"/>
      <stop offset="78%" stop-color="orange"/>
      <stop offset="100%" stop-color="#FF9C00"/>
    </linearGradient>
    <linearGradient id="button-play-store-en-c" x1="86.219%" x2="-50.15%" y1="31.689%" y2="132.483%">
      <stop offset="0%" stop-color="#FF3A44"/>
      <stop offset="100%" stop-color="#C31162"/>
    </linearGradient>
    <linearGradient id="button-play-store-en-d" x1="-18.754%" x2="42.121%" y1="-9.312%" y2="35.702%">
      <stop offset="0%" stop-color="#32A071"/>
      <stop offset="7%" stop-color="#2DA771"/>
      <stop offset="48%" stop-color="#15CF74"/>
      <stop offset="80%" stop-color="#06E775"/>
      <stop offset="100%" stop-color="#00F076"/>
    </linearGradient>
  </defs>
  <g fill="none" fill-rule="evenodd">
    <rect width="202" height="60" fill="#000" rx="8"/>
    <g transform="translate(17 12)">
      <path fill="url(#button-play-store-en-a)" d="M0.65777793,1.21175 C0.196036619,1.75441282 -0.0370210654,2.44911545 0.0061112637,3.15425 L0.0061112637,33.84575 C-0.0370210654,34.5508845 0.196036619,35.2455872 0.65777793,35.78825 L0.756944597,35.885375 L18.3094446,18.708125 L18.3094446,18.30575 L0.756944597,1.114625 L0.65777793,1.21175 Z"/>
      <path fill="url(#button-play-store-en-b)" d="M24.1177779,24.4385 L18.3094446,18.708125 L18.3094446,18.30575 L24.1177779,12.5615 L24.2452779,12.630875 L31.2011113,16.502 C33.1844446,17.598125 33.1844446,19.401875 31.2011113,20.511875 L24.2736113,24.369125 L24.1177779,24.4385 Z"/>
      <path fill="url(#button-play-store-en-c)" d="M24.2877779,24.35525 L18.3094446,18.5 L0.65777793,35.78825 C1.49179471,36.5063123 2.72955229,36.5412818 3.6044446,35.8715 L24.3019446,24.35525"/>
      <path fill="url(#button-play-store-en-d)" d="M24.2877779,12.64475 L3.59027793,1.1285 C2.71538563,0.458718217 1.47762805,0.493687669 0.643611264,1.21175 L18.3094446,18.5 L24.2877779,12.64475 Z"/>
    </g>
    <g fill="#FFF" stroke="#FFF" stroke-width=".2" transform="translate(59 12)">
      <path d="M9.78488372,5.1627907 C9.83481623,6.24016141 9.44079596,7.29088212 8.69476744,8.06976744 C7.86111882,8.93576049 6.69837762,9.40614215 5.49709302,9.36337209 C3.65456432,9.34895169 2.00021542,8.23141886 1.29897068,6.52748935 C0.597725948,4.82355984 0.986243487,2.86529427 2.28488372,1.55813953 C3.12868168,0.696694719 4.29153907,0.223132887 5.49709302,0.25 C6.11156632,0.247952663 6.719965,0.37161093 7.28488372,0.613372093 C7.810835,0.825513897 8.27904659,1.15923918 8.65116279,1.5872093 L7.88081395,2.35755814 C7.29265525,1.65795995 6.40971635,1.27571201 5.49709302,1.3255814 C4.57972292,1.32108121 3.70011532,1.69053439 3.06109888,2.34874875 C2.42208243,3.00696312 2.07882025,3.8971183 2.11046512,4.81395349 C2.09099115,6.19940362 2.90694264,7.46052254 4.1786821,8.01054986 C5.45042156,8.56057718 6.92818685,8.29149076 7.9244186,7.32848837 C8.37167078,6.84380321 8.62962644,6.21439142 8.65116279,5.55523256 L5.49709302,5.55523256 L5.49709302,4.50872093 L9.72674419,4.50872093 C9.76551328,4.72458448 9.78497007,4.94347333 9.78488372,5.1627907 L9.78488372,5.1627907 Z"/>
      <polygon points="16.442 1.529 12.517 1.529 12.517 4.291 16.093 4.291 16.093 5.337 12.517 5.337 12.517 8.099 16.442 8.099 16.442 9.174 11.355 9.174 11.355 .453 16.442 .453"/>
      <polygon points="21.209 9.174 20.09 9.174 20.09 1.529 17.648 1.529 17.648 .453 23.709 .453 23.709 1.529 21.209 1.529"/>
      <polygon points="27.983 9.174 27.983 .453 29.102 .453 29.102 9.174"/>
      <polygon points="34.073 9.174 32.953 9.174 32.953 1.529 30.512 1.529 30.512 .453 36.5 .453 36.5 1.529 34.073 1.529"/>
      <path d="M47.8517442,8.04069767 C46.0828341,9.79974983 43.2253055,9.79974983 41.4563953,8.04069767 C39.7416699,6.22563063 39.7416699,3.38774146 41.4563953,1.57267442 C42.3023233,0.72056205 43.453366,0.241326987 44.6540698,0.241326987 C45.8547736,0.241326987 47.0058162,0.72056205 47.8517442,1.57267442 C49.5737871,3.38482535 49.5737871,6.22854674 47.8517442,8.04069767 L47.8517442,8.04069767 Z M42.2848837,7.31395349 C43.5949476,8.61855388 45.7131919,8.61855388 47.0232558,7.31395349 C48.3098813,5.89559758 48.3098813,3.73230939 47.0232558,2.31395349 C45.7131919,1.0093531 43.5949476,1.0093531 42.2848837,2.31395349 C40.9982583,3.73230939 40.9982583,5.89559758 42.2848837,7.31395349 L42.2848837,7.31395349 Z"/>
      <polygon points="50.715 9.174 50.715 .453 52.081 .453 56.326 7.241 56.326 7.241 56.326 5.555 56.326 .453 57.445 .453 57.445 9.174 56.282 9.174 51.849 2.067 51.849 2.067 51.849 3.753 51.849 9.174"/>
    </g>
    <path fill="#FFF" d="M98.9382978,32.9647212 C95.5041774,32.9808819 92.7318476,35.775031 92.7426088,39.2091726 C92.75337,42.6433142 95.5431565,45.4200338 98.9773108,45.4146722 C102.411465,45.4093107 105.192568,42.6238934 105.192606,39.189735 C105.216734,37.5263729 104.564585,35.9244732 103.385528,34.7509393 C102.206472,33.5774055 100.601528,32.9327842 98.9382978,32.9647212 L98.9382978,32.9647212 Z M98.9382978,42.9686845 C97.3904333,43.0769342 95.9337004,42.2280009 95.2648386,40.82792 C94.5959767,39.4278391 94.850933,37.761179 95.9077647,36.625085 C96.9645963,35.488991 98.6085008,35.1143757 100.053217,35.6804136 C101.497932,36.2464514 102.449819,37.6380944 102.4536,39.189735 C102.501265,40.1603565 102.154847,41.1090792 101.492956,41.8206119 C100.831065,42.5321446 99.9098278,42.946152 98.9382978,42.9686845 L98.9382978,42.9686845 Z M85.3018559,32.9647212 C81.865794,32.9728061 79.0861101,35.7634095 79.0914968,39.1994767 C79.0968836,42.6355439 81.8853035,45.4174182 85.3213738,45.4147296 C88.7574442,45.412041 91.5415072,42.6258064 91.5415167,39.189735 C91.5656449,37.5263729 90.9134957,35.9244732 89.7344394,34.7509393 C88.555383,33.5774055 86.9504392,32.9327842 85.2872088,32.9647212 L85.3018559,32.9647212 Z M85.3018559,42.9686845 C83.7531834,43.0830388 82.2922031,42.2383385 81.6186276,40.8391389 C80.9450521,39.4399394 81.1960166,37.7711078 82.2513258,36.6319038 C83.3066349,35.4926997 84.9514352,35.1150571 86.3979765,35.6798417 C87.8445178,36.2446263 88.7982944,37.636852 88.8025107,39.189735 C88.8501764,40.1603565 88.5037579,41.1090792 87.841867,41.8206119 C87.1799762,42.5321446 86.2587388,42.946152 85.2872088,42.9686845 L85.3018559,42.9686845 Z M69.0582317,34.8834901 L69.0582317,37.5199666 L75.3857751,37.5199666 C75.2865607,38.7617525 74.7703697,39.9335062 73.9210659,40.8448563 C72.6409437,42.1487764 70.8694078,42.8510069 69.0435846,42.7782723 C65.1606893,42.7782723 62.0129808,39.6305638 62.0129808,35.7476685 C62.0129808,31.8647733 65.1606893,28.7170647 69.0435846,28.7170647 C70.8273011,28.6879739 72.5497495,29.3674719 73.8331834,30.6065395 L75.693364,28.7463589 C73.9429188,26.9738531 71.5492894,25.9857544 69.0582317,26.0073528 C65.5121134,25.8693465 62.1746752,27.6824993 60.3605751,30.7325881 C58.546475,33.7826768 58.546475,37.5808364 60.3605751,40.6309252 C62.1746752,43.6810139 65.5121134,45.4941667 69.0582317,45.3561604 C71.5947637,45.4707802 74.0569041,44.4827195 75.8105407,42.6464485 C77.3450809,40.9604535 78.1643914,38.7441136 78.095487,36.465376 C78.1002134,35.910234 78.0511607,35.3559391 77.949016,34.8102547 L69.0582317,34.8834901 Z M135.424202,36.9340829 C134.642164,34.6333326 132.521043,33.0541461 130.092661,32.9647212 C128.473225,32.9615549 126.924708,33.6288314 125.814801,34.8081068 C124.704895,35.9873822 124.132606,37.5734623 124.233824,39.189735 C124.197853,40.8438253 124.836061,42.4414307 126.001805,43.6154621 C127.167549,44.7894934 128.760593,45.4390026 130.414897,45.4147488 C132.496041,45.4259669 134.443789,44.3915696 135.599967,42.6610956 L133.476139,41.1963865 C132.831295,42.2713983 131.668477,42.9279173 130.414897,42.9247432 C129.116566,42.9742286 127.919972,42.224905 127.397596,41.0352685 L135.731791,37.593202 L135.424202,36.9340829 Z M126.928889,39.0139699 C126.868912,38.0987673 127.179832,37.1979429 127.791554,36.5145772 C128.403277,35.8312115 129.26431,35.4228278 130.180543,35.3814912 C131.146329,35.317852 132.056933,35.8365508 132.494784,36.6997295 L126.928889,39.0139699 Z M120.161933,45.0485715 L122.900939,45.0485715 L122.900939,26.7397074 L120.161933,26.7397074 L120.161933,45.0485715 Z M115.679923,34.3561949 L115.577393,34.3561949 C114.742454,33.4227017 113.548855,32.8898452 112.296445,32.8914857 C108.97177,33.0527087 106.359008,35.7952417 106.359008,39.1238231 C106.359008,42.4524044 108.97177,45.1949374 112.296445,45.3561604 C113.552915,45.377287 114.75425,44.8409765 115.577393,43.8914513 L115.665276,43.8914513 L115.665276,44.7849238 C115.665276,47.1723997 114.390979,48.4466966 112.340386,48.4466966 C110.943498,48.4140006 109.704976,47.5400907 109.205909,46.2349859 L106.818433,47.2309881 C107.737804,49.467322 109.92249,50.9218476 112.340386,50.907408 C115.548099,50.907408 118.199223,49.0179332 118.199223,44.4187466 L118.199223,33.3308985 L115.679923,33.3308985 L115.679923,34.3561949 Z M112.545446,42.9686845 C110.586965,42.7960829 109.084889,41.1558067 109.084889,39.189735 C109.084889,37.2236632 110.586965,35.583387 112.545446,35.4107854 C113.491823,35.4593515 114.378508,35.8879439 115.004472,36.5993917 C115.630436,37.3108395 115.942652,38.2448758 115.870335,39.189735 C115.951092,40.1389389 115.639874,41.0798412 115.009043,41.7936768 C114.378211,42.5075125 113.482728,42.932087 112.530799,42.9686845 L112.545446,42.9686845 Z M148.255054,26.7397074 L141.707804,26.7397074 L141.707804,45.0485715 L144.44681,45.0485715 L144.44681,38.1058502 L148.269701,38.1058502 C150.397461,38.2587128 152.432366,37.2101937 153.542845,35.3887752 C154.653323,33.5673567 154.653323,31.2782009 153.542845,29.4567824 C152.432366,27.6353639 150.397461,26.5868448 148.269701,26.7397074 L148.255054,26.7397074 Z M148.255054,35.5279622 L144.432163,35.5279622 L144.432163,29.2883013 L148.313642,29.2883013 C150.048811,29.2883013 151.455444,30.6949335 151.455444,32.4301024 C151.455444,34.1652712 150.048811,35.5719034 148.313642,35.5719034 L148.255054,35.5279622 Z M165.14315,32.8914857 C163.105319,32.769679 161.189442,33.8685756 160.265669,35.6890802 L162.697086,36.6997295 C163.186893,35.7969826 164.163443,35.2684971 165.187092,35.3521971 C165.889461,35.2701655 166.595342,35.4737241 167.146181,35.9171503 C167.697021,36.3605765 168.046641,37.0066957 168.11651,37.7103788 L168.11651,37.9007909 C167.236795,37.4350121 166.255732,37.1935198 165.260327,37.1977306 C162.638498,37.1977306 159.987374,38.6624397 159.987374,41.3135632 C160.039646,42.4556098 160.551639,43.5279537 161.40687,44.2866259 C162.2621,45.0452981 163.38784,45.4257819 164.527972,45.3415133 C165.932964,45.442407 167.280994,44.7683919 168.043274,43.5838623 L168.131157,43.5838623 L168.131157,45.0485715 L170.767633,45.0485715 L170.767633,38.0033206 C170.767633,34.7956076 168.336216,32.935427 165.216386,32.935427 L165.14315,32.8914857 Z M164.806267,42.9247432 C163.912795,42.9247432 162.667792,42.4706834 162.667792,41.3721516 C162.667792,39.9074424 164.220384,39.4240884 165.59721,39.4240884 C166.467309,39.4026186 167.327223,39.615068 168.087216,40.0392663 C167.897823,41.6788837 166.529532,42.9284644 164.879503,42.9686845 L164.806267,42.9247432 Z M180.376125,33.3308985 L177.241648,41.2696219 L177.153765,41.2696219 L173.902111,33.3308985 L170.972693,33.3308985 L175.850174,44.4333936 L173.067227,50.5998191 L175.923409,50.5998191 L183.42272,33.3308985 L180.376125,33.3308985 Z M155.754365,45.0485715 L158.493371,45.0485715 L158.493371,26.7397074 L155.754365,26.7397074 L155.754365,45.0485715 Z"/>
  </g>
</svg>
