<svg xmlns="http://www.w3.org/2000/svg" width="202" height="60" viewBox="0 0 202 60">
  <g fill="none" fill-rule="evenodd">
    <rect width="202" height="60" fill="#000" rx="8"/>
    <path fill="#FFF" d="M45.0041435 28.3505C44.9606435 23.516 48.9626435 21.164 49.1456435 21.0545 46.8791435 17.75 43.3661435 17.2985 42.1316435 17.2625 39.1811435 16.952 36.3191435 19.028 34.8161435 19.028 33.2831435 19.028 30.9686435 17.2925 28.4741435 17.3435 25.2641435 17.393 22.2611435 19.2515 20.6141435 22.1375 17.2151435 28.022 19.7501435 36.6695 23.0066435 41.426 24.6356435 43.7555 26.5391435 46.3565 29.0306435 46.265 31.4681435 46.1645 32.3786435 44.711 35.3201435 44.711 38.2346435 44.711 39.0896435 46.265 41.6306435 46.2065 44.2466435 46.1645 45.8936435 43.8665 47.4656435 41.516 49.3481435 38.846 50.1041435 36.2165 50.1341435 36.0815 50.0726435 36.0605 45.0536435 34.145 45.0041435 28.3505L45.0041435 28.3505zM40.2041435 14.1335C41.5151435 12.494 42.4121435 10.2635 42.1631435 8 40.2656435 8.084 37.8926435 9.3125 36.5261435 10.916 35.3171435 12.329 34.2371435 14.645 34.5161435 16.823 36.6476435 16.982 38.8361435 15.7475 40.2041435 14.1335L40.2041435 14.1335z"/>
    <g fill="#FFF" transform="translate(63 8)">
      <path d="M17.0793333 19.8058667L13.7485333 19.8058667 11.924 14.0726667 5.58213333 14.0726667 3.84413333 19.8058667.601333333 19.8058667 6.88453333.287466667 10.7653333.287466667 17.0793333 19.8058667zM11.374 11.6673333L9.724 6.57066667C9.54946667 6.05 9.2224 4.82386667 8.73986667 2.89373333L8.6812 2.89373333C8.48906667 3.72386667 8.1796 4.95 7.75426667 6.57066667L6.1336 11.6673333 11.374 11.6673333 11.374 11.6673333zM33.2376 12.5957333C33.2376 14.9893333 32.5908 16.8813333 31.2972 18.2702667 30.1385333 19.5066667 28.6997333 20.1241333 26.9822667 20.1241333 25.1284 20.1241333 23.7966667 19.4582667 22.9856 18.1265333L22.9269333 18.1265333 22.9269333 25.5405333 19.8 25.5405333 19.8 10.3649333C19.8 8.86013333 19.7604 7.31573333 19.6841333 5.73173333L22.4341333 5.73173333 22.6086667 7.96253333 22.6673333 7.96253333C23.7101333 6.28173333 25.2926667 5.4428 27.4164 5.4428 29.0766667 5.4428 30.4626667 6.0984 31.5714667 7.41106667 32.6832 8.7252 33.2376 10.4529333 33.2376 12.5957333zM30.052 12.7101333C30.052 11.3402667 29.744 10.2109333 29.1250667 9.32213333 28.4489333 8.3952 27.5410667 7.93173333 26.4029333 7.93173333 25.6314667 7.93173333 24.9304 8.18986667 24.3041333 8.6988 23.6764 9.21213333 23.2657333 9.8824 23.0736 10.7125333 22.9768 11.0997333 22.9284 11.4165333 22.9284 11.6658667L22.9284 14.0125333C22.9284 15.0362667 23.2422667 15.9001333 23.87 16.6056 24.4977333 17.3110667 25.3132 17.6630667 26.3164 17.6630667 27.4941333 17.6630667 28.4108 17.2084 29.0664 16.302 29.7234667 15.3941333 30.052 14.1973333 30.052 12.7101333zM49.4252 12.5957333C49.4252 14.9893333 48.7784 16.8813333 47.4833333 18.2702667 46.3261333 19.5066667 44.8873333 20.1241333 43.1698667 20.1241333 41.316 20.1241333 39.9842667 19.4582667 39.1746667 18.1265333L39.116 18.1265333 39.116 25.5405333 35.9890667 25.5405333 35.9890667 10.3649333C35.9890667 8.86013333 35.9494667 7.31573333 35.8732 5.73173333L38.6232 5.73173333 38.7977333 7.96253333 38.8564 7.96253333C39.8977333 6.28173333 41.4802667 5.4428 43.6054667 5.4428 45.2642667 5.4428 46.6502667 6.0984 47.762 7.41106667 48.8693333 8.7252 49.4252 10.4529333 49.4252 12.5957333zM46.2396 12.7101333C46.2396 11.3402667 45.9301333 10.2109333 45.3112 9.32213333 44.6350667 8.3952 43.7301333 7.93173333 42.5905333 7.93173333 41.8176 7.93173333 41.118 8.18986667 40.4902667 8.6988 39.8625333 9.21213333 39.4533333 9.8824 39.2612 10.7125333 39.1658667 11.0997333 39.116 11.4165333 39.116 11.6658667L39.116 14.0125333C39.116 15.0362667 39.4298667 15.9001333 40.0546667 16.6056 40.6824 17.3096 41.4978667 17.6630667 42.504 17.6630667 43.6817333 17.6630667 44.5984 17.2084 45.254 16.302 45.9110667 15.3941333 46.2396 14.1973333 46.2396 12.7101333zM67.5238667 14.3322667C67.5238667 15.9925333 66.9474667 17.3433333 65.7902667 18.3861333 64.5186667 19.5257333 62.7484 20.0948 60.4736 20.0948 58.3733333 20.0948 56.6896 19.69 55.4150667 18.8789333L56.1396 16.2726667C57.5124 17.1028 59.0186667 17.5193333 60.6598667 17.5193333 61.8376 17.5193333 62.7542667 17.2524 63.4128 16.7214667 64.0684 16.1905333 64.3954667 15.4777333 64.3954667 14.5889333 64.3954667 13.7969333 64.1256 13.1296 63.5844 12.5884 63.0461333 12.0472 62.1470667 11.5441333 60.8916 11.0792 57.4742667 9.80466667 55.7670667 7.9376 55.7670667 5.4824 55.7670667 3.87786667 56.3654667 2.56226667 57.5637333 1.53853333 58.7576.513333333 60.3504.00146666667 62.3421333.00146666667 64.1182667.00146666667 65.5937333.310933333 66.7714667.9284L65.9897333 3.47746667C64.8897333 2.87906667 63.646 2.57986667 62.2541333 2.57986667 61.1541333 2.57986667 60.2946667 2.8512 59.6786667 3.39093333 59.158 3.87346667 58.8969333 4.4616 58.8969333 5.15826667 58.8969333 5.92973333 59.1946667 6.56773333 59.7930667 7.06933333 60.3137333 7.5328 61.2597333 8.0344 62.6325333 8.5756 64.3118667 9.25173333 65.5453333 10.0422667 66.3388 10.9486667 67.1293333 11.8521333 67.5238667 12.9829333 67.5238667 14.3322667zM77.8624 8.0784L74.4157333 8.0784 74.4157333 14.9116C74.4157333 16.6496 75.0229333 17.5178667 76.2402667 17.5178667 76.7990667 17.5178667 77.2625333 17.4694667 77.6292 17.3726667L77.7157333 19.7472C77.0997333 19.9774667 76.2886667 20.0933333 75.284 20.0933333 74.0490667 20.0933333 73.084 19.7164 72.3873333 18.964 71.6936 18.2101333 71.3445333 16.9458667 71.3445333 15.1697333L71.3445333 8.07546667 69.2912 8.07546667 69.2912 5.7288 71.3445333 5.7288 71.3445333 3.15186667 74.4157333 2.22493333 74.4157333 5.7288 77.8624 5.7288 77.8624 8.0784zM93.4134667 12.6529333C93.4134667 14.8162667 92.7945333 16.5924 91.5596 17.9813333 90.2645333 19.4113333 88.5456 20.1241333 86.4028 20.1241333 84.3377333 20.1241333 82.6936 19.4392 81.4674667 18.0693333 80.2413333 16.6994667 79.6282667 14.9702667 79.6282667 12.8861333 79.6282667 10.7052 80.2589333 8.9188 81.5246667 7.52986667 82.7874667 6.13946667 84.4917333 5.44426667 86.6345333 5.44426667 88.6996 5.44426667 90.3613333 6.1292 91.6153333 7.50053333 92.8150667 8.8308 93.4134667 10.5482667 93.4134667 12.6529333zM90.1692 12.7541333C90.1692 11.4561333 89.892 10.3429333 89.3302667 9.41453333 88.6746667 8.29106667 87.7374667 7.7308 86.5230667 7.7308 85.2661333 7.7308 84.3113333 8.29253333 83.6557333 9.41453333 83.094 10.3444 82.8168 11.4752 82.8168 12.8128 82.8168 14.1108 83.094 15.224 83.6557333 16.1509333 84.3318667 17.2744 85.2764 17.8346667 86.4952 17.8346667 87.6890667 17.8346667 88.6262667 17.2626667 89.3024 16.1216 89.8788 15.1756 90.1692 14.0506667 90.1692 12.7541333zM103.577467 8.48173333C103.268 8.42453333 102.938 8.3952 102.591867 8.3952 101.491867 8.3952 100.6412 8.81026667 100.0428 9.64186667 99.5221333 10.3752 99.2610667 11.3021333 99.2610667 12.4212L99.2610667 19.8058667 96.1356 19.8058667 96.1649333 10.164C96.1649333 8.54186667 96.1253333 7.06493333 96.0476 5.7332L98.7712 5.7332 98.8856 8.426 98.9721333 8.426C99.3021333 7.50053333 99.8228 6.75546667 100.5356 6.19666667 101.232267 5.6936 101.984667 5.4428 102.795733 5.4428 103.084667 5.4428 103.345733 5.46333333 103.577467 5.5L103.577467 8.48173333zM117.562133 12.1029333C117.562133 12.6632 117.525467 13.1354667 117.447733 13.5212L108.066933 13.5212C108.1036 14.9116 108.5568 15.9749333 109.428 16.7082667 110.218533 17.3638667 111.2408 17.6924 112.496267 17.6924 113.8852 17.6924 115.1524 17.4709333 116.292 17.0265333L116.781867 19.1972C115.450133 19.778 113.877867 20.0669333 112.0636 20.0669333 109.8812 20.0669333 108.168133 19.4245333 106.921467 18.1412 105.677733 16.8578667 105.0544 15.1345333 105.0544 12.9726667 105.0544 10.8504 105.633733 9.08306667 106.793867 7.6736 108.008267 6.1688 109.649467 5.4164 111.714533 5.4164 113.742933 5.4164 115.278533 6.1688 116.321333 7.6736 117.147067 8.86893333 117.562133 10.3473333 117.562133 12.1029333zM114.5804 11.2918667C114.600933 10.3649333 114.397067 9.56413333 113.9732 8.888 113.432 8.01826667 112.6004 7.58413333 111.481333 7.58413333 110.459067 7.58413333 109.627467 8.008 108.9924 8.85866667 108.471733 9.5348 108.162267 10.3458667 108.066933 11.2904L114.5804 11.2904 114.5804 11.2918667z" transform="translate(0 17.6)"/>
      <g transform="translate(1.467)">
        <path d="M8.87333333 5.87986667C8.87333333 7.60613333 8.3556 8.9056 7.3216 9.77826667 6.36386667 10.5834667 5.0028 10.9868 3.23986667 10.9868 2.36573333 10.9868 1.61773333 10.9486667.991466667 10.8724L.991466667 1.44026667C1.8084 1.30826667 2.6884 1.2408 3.6388 1.2408 5.31813333 1.2408 6.58386667 1.606 7.43746667 2.3364 8.39373333 3.16213333 8.87333333 4.3428 8.87333333 5.87986667zM7.25266667 5.9224C7.25266667 4.80333333 6.9564 3.94533333 6.36386667 3.34693333 5.77133333 2.75 4.906 2.4508 3.7664 2.4508 3.2824 2.4508 2.87026667 2.48306667 2.52853333 2.55053333L2.52853333 9.72106667C2.71773333 9.7504 3.06386667 9.7636 3.56693333 9.7636 4.7432 9.7636 5.65106667 9.43653333 6.29053333 8.7824 6.93 8.12826667 7.25266667 7.17493333 7.25266667 5.9224zM17.4665333 7.3876C17.4665333 8.45093333 17.1629333 9.32213333 16.5557333 10.0056 15.9192 10.7081333 15.0758667 11.0586667 14.0228 11.0586667 13.0078667 11.0586667 12.1997333 10.7228 11.5969333 10.0481333 10.9956 9.37493333 10.6949333 8.52573333 10.6949333 7.502 10.6949333 6.43133333 11.0044 5.5528 11.6262667 4.8708 12.2481333 4.1888 13.0841333 3.84706667 14.1372 3.84706667 15.1521333 3.84706667 15.9676 4.18293333 16.5850667 4.85613333 17.1717333 5.51026667 17.4665333 6.35506667 17.4665333 7.3876zM15.8722667 7.43746667C15.8722667 6.79946667 15.7344 6.2524 15.4601333 5.79626667 15.1374667 5.2448 14.6784 4.96906667 14.0814667 4.96906667 13.464 4.96906667 12.9946667 5.2448 12.672 5.79626667 12.3962667 6.2524 12.2598667 6.80826667 12.2598667 7.46533333 12.2598667 8.10333333 12.3977333 8.6504 12.672 9.10653333 13.0049333 9.658 13.4684 9.93373333 14.0668 9.93373333 14.6534667 9.93373333 15.114 9.6536 15.4454667 9.09186667 15.73 8.62693333 15.8722667 8.07546667 15.8722667 7.43746667zM28.9886667 3.98786667L26.8253333 10.9017333 25.4173333 10.9017333 24.5212 7.89946667C24.2938667 7.15 24.1090667 6.40493333 23.9653333 5.66573333L23.9374667 5.66573333C23.804 6.42546667 23.6192 7.16906667 23.3816 7.89946667L22.4297333 10.9017333 21.0056 10.9017333 18.9713333 3.98786667 20.5509333 3.98786667 21.3326667 7.27466667C21.5218667 8.052 21.6773333 8.79266667 21.802 9.49373333L21.8298667 9.49373333C21.9442667 8.91586667 22.1334667 8.1796 22.4004 7.28933333L23.3816 3.98933333 24.6341333 3.98933333 25.5742667 7.21893333C25.8016 8.00653333 25.9864 8.7648 26.1286667 9.4952L26.1712 9.4952C26.2753333 8.78386667 26.4322667 8.0256 26.6405333 7.21893333L27.4794667 3.98933333 28.9886667 3.98933333 28.9886667 3.98786667zM36.9570667 10.9017333L35.42 10.9017333 35.42 6.94173333C35.42 5.72146667 34.9565333 5.11133333 34.0266667 5.11133333 33.5705333 5.11133333 33.2024 5.27853333 32.9164 5.6144 32.6333333 5.95026667 32.4896 6.34626667 32.4896 6.79946667L32.4896 10.9002667 30.9525333 10.9002667 30.9525333 5.96346667C30.9525333 5.35626667 30.9334667 4.69773333 30.8968 3.98493333L32.2476 3.98493333 32.3194667 5.06586667 32.362 5.06586667C32.5409333 4.73 32.8078667 4.4528 33.1584 4.23133333 33.5749333 3.9732 34.0413333 3.84266667 34.5517333 3.84266667 35.1970667 3.84266667 35.7338667 4.05093333 36.1606667 4.46893333 36.6916 4.9808 36.9570667 5.74493333 36.9570667 6.75986667L36.9570667 10.9017333 36.9570667 10.9017333z"/>
        <polygon points="41.196 10.902 39.66 10.902 39.66 .815 41.196 .815"/>
        <path d="M50.2450667 7.3876C50.2450667 8.45093333 49.9414667 9.32213333 49.3342667 10.0056 48.6977333 10.7081333 47.8529333 11.0586667 46.8013333 11.0586667 45.7849333 11.0586667 44.9768 10.7228 44.3754667 10.0481333 43.7741333 9.37493333 43.4734667 8.52573333 43.4734667 7.502 43.4734667 6.43133333 43.7829333 5.5528 44.4048 4.8708 45.0266667 4.1888 45.8626667 3.84706667 46.9142667 3.84706667 47.9306667 3.84706667 48.7446667 4.18293333 49.3636 4.85613333 49.9502667 5.51026667 50.2450667 6.35506667 50.2450667 7.3876zM48.6493333 7.43746667C48.6493333 6.79946667 48.5114667 6.2524 48.2372 5.79626667 47.916 5.2448 47.4554667 4.96906667 46.86 4.96906667 46.2410667 4.96906667 45.7717333 5.2448 45.4505333 5.79626667 45.1748 6.2524 45.0384 6.80826667 45.0384 7.46533333 45.0384 8.10333333 45.1762667 8.6504 45.4505333 9.10653333 45.7834667 9.658 46.2469333 9.93373333 46.8453333 9.93373333 47.432 9.93373333 47.8910667 9.6536 48.2225333 9.09186667 48.5085333 8.62693333 48.6493333 8.07546667 48.6493333 7.43746667zM57.684 10.9017333L56.3038667 10.9017333 56.1894667 10.1053333 56.1469333 10.1053333C55.6746667 10.7404 55.0014667 11.0586667 54.1273333 11.0586667 53.4746667 11.0586667 52.9466667 10.8489333 52.5492 10.4324 52.1884 10.054 52.008 9.5832 52.008 9.0244 52.008 8.1796 52.36 7.53573333 53.0684 7.08986667 53.7753333 6.644 54.7697333 6.42546667 56.0501333 6.43573333L56.0501333 6.30666667C56.0501333 5.39586667 55.572 4.9412 54.6142667 4.9412 53.9322667 4.9412 53.3309333 5.1128 52.8117333 5.45306667L52.4993333 4.444C53.1417333 4.04653333 53.9352 3.84706667 54.8709333 3.84706667 56.6778667 3.84706667 57.5842667 4.8004 57.5842667 6.70706667L57.5842667 9.2532C57.5842667 9.944 57.618 10.494 57.684 10.9017333zM56.0882667 8.52573333L56.0882667 7.45946667C54.3928 7.43013333 53.5450667 7.89506667 53.5450667 8.8528 53.5450667 9.2136 53.6418667 9.48346667 53.8398667 9.66386667 54.0378667 9.84426667 54.2901333 9.93373333 54.5908 9.93373333 54.9281333 9.93373333 55.2434667 9.82666667 55.5309333 9.614 55.8198667 9.39986667 55.9973333 9.12853333 56.0633333 8.7956 56.0794667 8.7208 56.0882667 8.62986667 56.0882667 8.52573333zM66.418 10.9017333L65.054 10.9017333 64.9821333 9.79146667 64.9396 9.79146667C64.504 10.6362667 63.7618667 11.0586667 62.7190667 11.0586667 61.886 11.0586667 61.1922667 10.7316 60.6422667 10.0774667 60.0922667 9.42333333 59.818 8.57413333 59.818 7.53133333 59.818 6.41226667 60.1157333 5.50586667 60.7141333 4.8136 61.2934667 4.16826667 62.0033333 3.8456 62.8481333 3.8456 63.7765333 3.8456 64.4262667 4.158 64.7958667 4.78426667L64.8252 4.78426667 64.8252.815466667 66.3637333.815466667 66.3637333 9.03906667C66.3637333 9.71226667 66.3813333 10.3326667 66.418 10.9017333zM64.8252 7.986L64.8252 6.8332C64.8252 6.63373333 64.8105333 6.4724 64.7826667 6.3492 64.6961333 5.9796 64.5098667 5.66866667 64.2268 5.41786667 63.9408 5.16706667 63.5961333 5.04093333 63.1986667 5.04093333 62.6252 5.04093333 62.1764 5.26826667 61.8464 5.7244 61.5193333 6.18053333 61.3536 6.7628 61.3536 7.47413333 61.3536 8.1576 61.5105333 8.712 61.8258667 9.1388 62.1588 9.59346667 62.6076 9.8208 63.1693333 9.8208 63.6738667 9.8208 64.0772 9.6316 64.3837333 9.25173333 64.68 8.9012 64.8252 8.4788 64.8252 7.986zM79.5637333 7.3876C79.5637333 8.45093333 79.2601333 9.32213333 78.6529333 10.0056 78.0164 10.7081333 77.1745333 11.0586667 76.12 11.0586667 75.1065333 11.0586667 74.2984 10.7228 73.6941333 10.0481333 73.0928 9.37493333 72.7921333 8.52573333 72.7921333 7.502 72.7921333 6.43133333 73.1016 5.5528 73.7234667 4.8708 74.3453333 4.1888 75.1813333 3.84706667 76.2358667 3.84706667 77.2493333 3.84706667 78.0662667 4.18293333 78.6822667 4.85613333 79.2689333 5.51026667 79.5637333 6.35506667 79.5637333 7.3876zM77.9709333 7.43746667C77.9709333 6.79946667 77.8330667 6.2524 77.5588 5.79626667 77.2346667 5.2448 76.7770667 4.96906667 76.1786667 4.96906667 75.5626667 4.96906667 75.0933333 5.2448 74.7692 5.79626667 74.4934667 6.2524 74.3570667 6.80826667 74.3570667 7.46533333 74.3570667 8.10333333 74.4949333 8.6504 74.7692 9.10653333 75.1021333 9.658 75.5656 9.93373333 76.164 9.93373333 76.7506667 9.93373333 77.2126667 9.6536 77.5441333 9.09186667 77.8272 8.62693333 77.9709333 8.07546667 77.9709333 7.43746667zM87.8284 10.9017333L86.2928 10.9017333 86.2928 6.94173333C86.2928 5.72146667 85.8293333 5.11133333 84.898 5.11133333 84.4418667 5.11133333 84.0737333 5.27853333 83.7892 5.6144 83.5046667 5.95026667 83.3624 6.34626667 83.3624 6.79946667L83.3624 10.9002667 81.8238667 10.9002667 81.8238667 5.96346667C81.8238667 5.35626667 81.8062667 4.69773333 81.7696 3.98493333L83.1189333 3.98493333 83.1908 5.06586667 83.2333333 5.06586667C83.4137333 4.73 83.6806667 4.4528 84.0297333 4.23133333 84.4477333 3.9732 84.9126667 3.84266667 85.4245333 3.84266667 86.0684 3.84266667 86.6052 4.05093333 87.032 4.46893333 87.5644 4.9808 87.8284 5.74493333 87.8284 6.75986667L87.8284 10.9017333 87.8284 10.9017333zM98.1728 5.1392L96.4802667 5.1392 96.4802667 8.49786667C96.4802667 9.35146667 96.7809333 9.77826667 97.3764 9.77826667 97.6521333 9.77826667 97.8809333 9.7548 98.0613333 9.7064L98.1009333 10.8724C97.7973333 10.9868 97.3984 11.044 96.9070667 11.044 96.2998667 11.044 95.8276 10.8592 95.4858667 10.4896 95.1426667 10.12 94.9725333 9.49813333 94.9725333 8.62546667L94.9725333 5.1392 93.962 5.1392 93.962 3.98786667 94.9725333 3.98786667 94.9725333 2.72066667 96.4788 2.266 96.4788 3.9864 98.1713333 3.9864 98.1713333 5.1392 98.1728 5.1392zM106.309867 10.9017333L104.771333 10.9017333 104.771333 6.97106667C104.771333 5.73173333 104.307867 5.11133333 103.379467 5.11133333 102.666667 5.11133333 102.179733 5.47066667 101.9128 6.18933333 101.867333 6.3404 101.840933 6.5252 101.840933 6.74226667L101.840933 10.9002667 100.305333 10.9002667 100.305333.815466667 101.840933.815466667 101.840933 4.98226667 101.870267 4.98226667C102.354267 4.224 103.048 3.8456 103.947067 3.8456 104.5836 3.8456 105.110133 4.05386667 105.528133 4.47186667 106.0488 4.99253333 106.309867 5.76693333 106.309867 6.79066667L106.309867 10.9017333 106.309867 10.9017333zM114.7036 7.11773333C114.7036 7.39346667 114.683067 7.6252 114.6464 7.8144L110.036667 7.8144C110.0572 8.49786667 110.2772 9.01853333 110.704 9.37933333 111.094133 9.702 111.5972 9.86333333 112.2132 9.86333333 112.8952 9.86333333 113.517067 9.7548 114.077333 9.53626667L114.317867 10.604C113.662267 10.8885333 112.8908 11.0308 111.9976 11.0308 110.926933 11.0308 110.0836 10.7154667 109.473467 10.0848 108.8604 9.45413333 108.5568 8.60786667 108.5568 7.546 108.5568 6.5032 108.839867 5.63493333 109.4104 4.94266667 110.005867 4.20346667 110.811067 3.83386667 111.827467 3.83386667 112.821867 3.83386667 113.5772 4.20346667 114.0876 4.94266667 114.499733 5.52933333 114.7036 6.25533333 114.7036 7.11773333zM113.236933 6.72026667C113.248667 6.26413333 113.147467 5.87106667 112.9392 5.5396 112.672267 5.1128 112.266 4.89866667 111.716 4.89866667 111.2144 4.89866667 110.8052 5.10693333 110.4928 5.52493333 110.2376 5.85786667 110.086533 6.25533333 110.036667 6.72026667L113.236933 6.72026667z"/>
      </g>
    </g>
  </g>
</svg>
