<svg xmlns="http://www.w3.org/2000/svg" id="icon" class="icon" version="1.1">
<defs>
    <style>
        svg .icon { display: none }
        svg .icon:target { display: inline }
    </style>
    <linearGradient id="icon-star-rating-gradient" x1="0" y1="0" x2="1" y2="0" gradientTransform="rotate(57)">
        <stop offset="0" stop-color="#ffe082" />
        <stop offset="1" stop-color="#ffc107" />
    </linearGradient>
    <linearGradient id="icon-quote" x1="0%" x2="100%" y1="16.338%" y2="83.662%">
        <stop offset="0%" stop-color="#F6409C"/>
        <stop offset="100%" stop-color="#C2185B"/>
    </linearGradient>
    <linearGradient id="icon-star-half-filled-a" x1="28.42%" x2="71.58%" y1="0%" y2="100%">
        <stop offset="0%" stop-color="#FFE082"/>
        <stop offset="100%" stop-color="#FFC107"/>
    </linearGradient>
</defs>
    <svg class="icon-svg" viewBox="0 0 50 50">
         <g id="icon-pinterest" class="icon">
             <path fill="#37474F" fill-rule="evenodd" d="M23,0 C10.318,0 0,10.317 0,23 C0,35.683 10.318,46 23,46 C35.682,46 46,35.683 46,23 C46,10.317 35.682,0 23,0 Z M25.542,30.719 C22.245,30.719 21.026,28.581 21.026,28.581 C21.026,28.581 20.438,30.89 20.005,32.531 C19.572,34.172 19.498,34.196 19.078,35.122 C18.607,36.161 17.452,37.796 17.112,38.299 C16.841,38.7 16.505,39.034 16.308,38.995 C16.111,38.957 16.111,38.75 16.063,38.317 C15.997,37.722 15.805,35.723 15.897,34.371 C15.957,33.491 16.264,32 16.264,32 L18.489,22.892 C17.121,20.085 18.243,15.7 21.36,15.7 C23.571,15.7 24.15,17.701 23.473,20.106 C23.172,21.179 22.227,24.188 22.198,24.33 C22.169,24.472 22.099,24.772 22.115,25.068 C22.115,25.946 22.786,27.74 25.11,27.74 C28.854,27.74 30.627,22.205 30.627,18.503 C30.627,15.526 28.735,11.93 23.211,11.93 C17.583,11.93 14.479,16.213 14.479,20.144 C14.479,22.349 15.349,23.235 15.752,23.721 C16.08,24.116 15.914,24.495 15.914,24.495 L15.559,25.92 C15.428,26.391 15.007,26.633 14.416,26.288 C13.824,25.948 11,24.752 11,19.649 C11,14.42 15.926,9 23.571,9 C29.64,9 35,12.817 35,19.001 C35,26.635 30.232,30.719 25.542,30.719 Z" transform="translate(2 2)"/>
        </g>
    </svg>

    <svg class="icon-svg" viewBox="0 0 50 50">
        <g id="icon-youtube" class="icon">
            <path fill="#37474F" d="M41.898438,5.5 C41.5,3.300781 39.601563,1.699219 37.398438,1.199219 C34.101563,0.5 28,0 21.398438,0 C14.800781,0 8.601563,0.5 5.300781,1.199219 C3.101563,1.699219 1.199219,3.199219 0.800781,5.5 C0.398438,8 0,11.5 0,16 C0,20.5 0.398438,24 0.898438,26.5 C1.300781,28.699219 3.199219,30.300781 5.398438,30.800781 C8.898438,31.5 14.898438,32 21.5,32 C28.101563,32 34.101563,31.5 37.601563,30.800781 C39.800781,30.300781 41.699219,28.800781 42.101563,26.5 C42.5,24 43,20.398438 43.101563,16 C42.898438,11.5 42.398438,8 41.898438,5.5 Z M16,23 L16,9 L28.199219,16 L16,23 Z" transform="translate(3 9)"/>
        </g>
    </svg>

    <svg class="icon-svg" viewBox="0 0 50 50">
        <g id="icon-apple-logo" class="icon" fill="none" fill-rule="evenodd">
            <rect width="50" height="50"/>
            <path fill="#37474F" d="M39.527344,33.75 C38.449219,36.144531 37.929688,37.214844 36.542969,39.328125 C34.601563,42.28125 31.863281,45.96875 28.480469,45.992188 C25.46875,46.019531 24.691406,44.027344 20.601563,44.0625 C16.515625,44.082031 15.664063,46.03125 12.648438,46 C9.261719,45.96875 6.671875,42.648438 4.730469,39.699219 C-0.699219,31.429688 -1.273437,21.734375 2.082031,16.578125 C4.457031,12.921875 8.210938,10.773438 11.738281,10.773438 C15.332031,10.773438 17.589844,12.746094 20.558594,12.746094 C23.441406,12.746094 25.195313,10.769531 29.351563,10.769531 C32.492188,10.769531 35.8125,12.480469 38.1875,15.433594 C30.421875,19.691406 31.683594,30.78125 39.527344,33.75 Z M26.195313,7.46875 C27.707031,5.527344 28.855469,2.789063 28.4375,0 C25.972656,0.167969 23.089844,1.742188 21.40625,3.78125 C19.878906,5.640625 18.613281,8.398438 19.105469,11.066406 C21.796875,11.152344 24.582031,9.546875 26.195313,7.46875 Z" transform="translate(5 2)"/>
        </g>
    </svg>

    <svg class="icon-svg" viewBox="0 0 50 50">
        <g id="icon-android" class="icon" fill="none" fill-rule="evenodd">
            <rect width="50" height="50"/>
            <path fill="#37474F" d="M11.28125,1.03125 C11.152344,1.0546875 11.019531,1.078125 10.90625,1.15625 C10.449219,1.464844 10.347656,2.105469 10.65625,2.5625 L12.8125,5.78125 C9.480469,7.546875 6.996094,10.480469 6.1875,14 L33.8125,14 C33.003906,10.480469 30.519531,7.546875 27.1875,5.78125 L29.34375,2.5625 C29.652344,2.105469 29.550781,1.464844 29.09375,1.15625 C28.632813,0.847656 27.996094,0.9804687 27.6875,1.4375 L25.3125,4.9375 C23.664063,4.335938 21.875,4 20,4 C18.125,4 16.335938,4.335938 14.6875,4.9375 L12.3125,1.4375 C12.082031,1.09375 11.664063,0.9570312 11.28125,1.03125 Z M14.5,9 C15.328125,9 16,9.671875 16,10.5 C16,11.332031 15.328125,12 14.5,12 C13.667969,12 13,11.332031 13,10.5 C13,9.671875 13.667969,9 14.5,9 Z M25.5,9 C26.332031,9 27,9.671875 27,10.5 C27,11.332031 26.332031,12 25.5,12 C24.671875,12 24,11.332031 24,10.5 C24,9.671875 24.671875,9 25.5,9 Z M3,16 C1.34375,16 0,17.34375 0,19 L0,33 C0,34.65625 1.34375,36 3,36 C3.351563,36 3.6875,35.925781 4,35.8125 L4,16.1875 C3.6875,16.074219 3.351563,16 3,16 Z M6,16 L6,38 C6,39.652344 7.347656,41 9,41 L31,41 C32.652344,41 34,39.652344 34,38 L34,16 L6,16 Z M37,16 C36.648438,16 36.3125,16.074219 36,16.1875 L36,35.8125 C36.3125,35.921875 36.648438,36 37,36 C38.65625,36 40,34.65625 40,33 L40,19 C40,17.34375 38.65625,16 37,16 Z M10,43 L10,47 C10,49.207031 11.792969,51 14,51 C16.207031,51 18,49.207031 18,47 L18,43 L10,43 Z M22,43 L22,47 C22,49.207031 23.792969,51 26,51 C28.207031,51 30,49.207031 30,47 L30,43 L22,43 Z" transform="translate(5 -1)"/>
        </g>
    </svg>

    <svg class="icon-svg" viewBox="0 0 50 50">
        <g id="icon-instagram" class="icon" fill="none" fill-rule="evenodd">
            <path fill="#37474F" fill-rule="evenodd" d="M13,0 C5.83,0 0,5.83 0,13 L0,31 C0,38.17 5.83,44 13,44 L31,44 C38.17,44 44,38.17 44,31 L44,13 C44,5.83 38.17,0 31,0 L13,0 Z M34,8 C35.1,8 36,8.9 36,10 C36,11.1 35.1,12 34,12 C32.9,12 32,11.1 32,10 C32,8.9 32.9,8 34,8 Z M22,11 C28.07,11 33,15.93 33,22 C33,28.07 28.07,33 22,33 C15.93,33 11,28.07 11,22 C11,15.93 15.93,11 22,11 Z M22,13 C17.04,13 13,17.04 13,22 C13,26.96 17.04,31 22,31 C26.96,31 31,26.96 31,22 C31,17.04 26.96,13 22,13 Z" transform="translate(3 3)"/>
        </g>
    </svg>

    <svg class="icon-svg icon-pointer-normal" viewBox="0 0 50 50">
        <g id="icon-facebook" class="icon" fill="none" fill-rule="evenodd">
            <path fill="#37474F" fill-rule="evenodd" d="M37,0 L5,0 C2.24,0 0,2.24 0,5 L0,37 C0,39.76 2.24,42 5,42 L37,42 C39.76,42 42,39.76 42,37 L42,5 C42,2.24 39.76,0 37,0 Z M33,15 L31,15 C28.86,15 28,15.5 28,17 L28,20 L33,20 L32,25 L28,25 L28,40 L23,40 L23,25 L19,25 L19,20 L23,20 L23,17 C23,13 25,10 29,10 C31.9,10 33,11 33,11 L33,15 Z" transform="translate(4 4)"/>
        </g>
    </svg>

    <svg class="icon-svg" viewBox="0 0 50 50">
        <g id="icon-chevron-right" class="icon" fill="none" fill-rule="evenodd">
            <polygon fill="#37474F" fill-rule="evenodd" points="17.281 .313 2.031 15.594 .625 17 17.313 33.688 20.125 30.875 6.281 17 20.125 3.156" transform="matrix(-1 0 0 1 36 8)"/>
        </g>
    </svg>

    <svg class="icon-svg" viewBox="0 0 50 50">
        <g id="icon-search" class="icon" fill="none" fill-rule="evenodd">
            <path fill="#37474F" fill-rule="evenodd" d="M17,0 C7.621094,0 0,7.621094 0,17 C0,26.378906 7.621094,34 17,34 C20.710938,34 24.140625,32.804688 26.9375,30.78125 L40.09375,43.90625 L42.90625,41.09375 L29.90625,28.0625 C32.460938,25.085938 34,21.222656 34,17 C34,7.621094 26.378906,0 17,0 Z M17,2 C25.296875,2 32,8.703125 32,17 C32,25.296875 25.296875,32 17,32 C8.703125,32 2,25.296875 2,17 C2,8.703125 8.703125,2 17,2 Z" transform="translate(4 3)"/>
        </g>
    </svg>

    <svg class="icon-svg" viewBox="0 0 50 50">
        <g id="icon-globe" class="icon" fill="none" fill-rule="evenodd">
            <path fill="#37474F" d="M24,0.9199219 C11.265113,0.9199219 0.9199219,11.265113 0.9199219,24 C0.9199219,36.734887 11.265113,47.080078 24,47.080078 C36.734887,47.080078 47.080078,36.734887 47.080078,24 C47.080078,11.265113 36.734887,0.9199219 24,0.9199219 Z M23,3.0371094 L23,12.970703 C20.43251,12.91011 17.991445,12.623022 15.740234,12.152344 C16.136627,10.9515 16.587103,9.835559 17.087891,8.8339844 C18.740825,5.5281156 20.837286,3.5160498 23,3.0371094 Z M25,3.0371094 C27.162714,3.5160498 29.259175,5.5281156 30.912109,8.8339844 C31.414496,9.838757 31.866379,10.958806 32.263672,12.164062 C30.015269,12.630037 27.5709,12.911377 25,12.970703 L25,3.0371094 Z M18.171875,3.7402344 C17.086481,4.8772845 16.118637,6.2998344 15.298828,7.9394531 C14.727502,9.082106 14.226366,10.34271 13.789062,11.6875 C11.825936,11.158279 10.050587,10.492361 8.5175781,9.71875 C11.097501,6.9227151 14.411073,4.8180109 18.171875,3.7402344 Z M29.828125,3.7402344 C33.585289,4.8169681 36.895737,6.9189636 39.474609,9.710938 C37.96425,10.498668 36.190868,11.172098 34.216797,11.703125 C33.778353,10.352409 33.274712,9.086534 32.701172,7.9394531 C31.881363,6.2998344 30.913519,4.8772845 29.828125,3.7402344 Z M40.783203,11.273438 C43.280319,14.563254 44.849591,18.596544 45.054688,23 L36.013672,23 C35.940686,19.642697 35.511581,16.472843 34.777344,13.632812 C37.021162,13.025788 39.043564,12.230357 40.783203,11.273438 Z M7.2050781,11.289062 C8.9635362,12.222752 10.989301,13.00879 13.226562,13.615234 C12.489633,16.459671 12.059462,19.635904 11.986328,23 L2.9453125,23 C3.1500856,18.603485 4.7148727,14.576078 7.2050781,11.289062 Z M15.175781,14.085938 C17.608124,14.603479 20.237145,14.911692 23,14.972656 L23,23 L13.986328,23 C14.060725,19.787369 14.480743,16.762271 15.175781,14.085938 Z M32.828125,14.099609 C33.521088,16.7726 33.939401,19.792796 34.013672,23 L25,23 L25,14.972656 C27.764457,14.913393 30.396477,14.612271 32.828125,14.099609 Z M2.9453125,25 L11.986328,25 C12.059314,28.357303 12.488419,31.527156 13.222656,34.367188 C10.978838,34.974212 8.9564363,35.769643 7.2167969,36.726562 C4.7196806,33.436746 3.1504088,29.403456 2.9453125,25 Z M13.986328,25 L23,25 L23,33.027344 C20.235543,33.086607 17.603523,33.387729 15.171875,33.900391 C14.478912,31.2274 14.060599,28.207204 13.986328,25 Z M25,25 L34.013672,25 C33.939275,28.212631 33.519257,31.237729 32.824219,33.914062 C30.391876,33.396521 27.762855,33.088308 25,33.027344 L25,25 Z M36.013672,25 L45.054688,25 C44.849914,29.396515 43.285127,33.423922 40.794922,36.710938 C39.036464,35.777248 37.010699,34.99121 34.773438,34.384766 C35.510367,31.540329 35.940538,28.364096 36.013672,25 Z M23,35.029297 L23,44.962891 C20.837286,44.48395 18.740825,42.471884 17.087891,39.166016 C16.585504,38.161243 16.133621,37.041194 15.736328,35.835938 C17.984731,35.369963 20.4291,35.088623 23,35.029297 Z M25,35.029297 C27.56749,35.08989 30.008555,35.376978 32.259766,35.847656 C31.863373,37.0485 31.412897,38.16444 30.912109,39.166016 C29.259175,42.471884 27.162714,44.48395 25,44.962891 L25,35.029297 Z M13.783203,36.296875 C14.221647,37.647591 14.725288,38.913466 15.298828,40.060547 C16.118637,41.700166 17.086481,43.122716 18.171875,44.259766 C14.414711,43.183032 11.104263,41.081036 8.5253906,38.289062 C10.03575,37.501332 11.809132,36.827902 13.783203,36.296875 Z M34.210938,36.3125 C36.174064,36.841721 37.949413,37.507639 39.482422,38.28125 C36.902499,41.077285 33.588927,43.181989 29.828125,44.259766 C30.913519,43.122716 31.881363,41.700166 32.701172,40.060547 C33.272498,38.917894 33.773634,37.65729 34.210938,36.3125 Z" transform="translate(1 1)"/>
        </g>
    </svg>

    <svg class="icon-svg" viewBox="0 0 50 50">
        <g id="icon-close-white" class="icon" fill="none" fill-rule="evenodd">
            <polygon stroke="5px" fill="#ffffff" points="3.156 .313 .313 3.156 16.156 19 .219 34.969 3.031 37.781 19 21.844 34.938 37.781 37.781 34.938 21.844 19 37.688 3.156 34.844 .313 19 16.156" transform="translate(6 6)"/>
        </g>
    </svg>

    <svg class="icon-svg" viewBox="0 0 50 50">
        <g id="icon-close-grey" class="icon" fill="none" fill-rule="evenodd">
            <polygon fill="#37474F" points="3.156 .313 .313 3.156 16.156 19 .219 34.969 3.031 37.781 19 21.844 34.938 37.781 37.781 34.938 21.844 19 37.688 3.156 34.844 .313 19 16.156" transform="translate(6 6)"/>
        </g>
    </svg>

    <svg class="icon-svg" viewBox="0 0 50 50">
        <g id="icon-ok-filled" class="icon" fill="none" fill-rule="evenodd">
            <path fill="#37474F" fill-rule="evenodd" d="M22,0 C9.87,0 0,9.87 0,22 C0,34.13 9.87,44 22,44 C34.13,44 44,34.13 44,22 C44,9.87 34.13,0 22,0 Z M32.83,13.56 L21.32,30.53 L12.32,22.18 C11.92,21.8 11.89,21.17 12.27,20.76 C12.64,20.36 13.28,20.34 13.68,20.71 L20.97,27.47 L31.17,12.44 C31.48,11.98 32.11,11.86 32.56,12.17 C33.02,12.48 33.14,13.1 32.83,13.56 Z" transform="translate(3 3)"/>
        </g>
    </svg>

    <svg class="icon-svg" viewBox="0 0 50 50">
        <g id="icon-ok-filled-green" class="icon" fill="none" fill-rule="evenodd">
            <path fill="#8bc34a" fill-rule="evenodd" d="M22,0 C9.87,0 0,9.87 0,22 C0,34.13 9.87,44 22,44 C34.13,44 44,34.13 44,22 C44,9.87 34.13,0 22,0 Z M32.83,13.56 L21.32,30.53 L12.32,22.18 C11.92,21.8 11.89,21.17 12.27,20.76 C12.64,20.36 13.28,20.34 13.68,20.71 L20.97,27.47 L31.17,12.44 C31.48,11.98 32.11,11.86 32.56,12.17 C33.02,12.48 33.14,13.1 32.83,13.56 Z" transform="translate(3 3)"/>
        </g>
    </svg>

    <svg class="icon-svg" viewBox="0 0 50 50">
        <g id="icon-star-filled" class="icon">
            <path fill="url(#icon-star-rating-gradient)" d="M39.695313,47.226563 C39.511719,47.226563 39.324219,47.175781 39.164063,47.070313 L25,38.179688 L10.835938,47.070313 C10.492188,47.289063 10.046875,47.273438 9.71875,47.035156 C9.386719,46.796875 9.234375,46.378906 9.335938,45.980469 L13.414063,29.765625 L0.582031,19.042969 C0.269531,18.78125 0.148438,18.355469 0.273438,17.964844 C0.398438,17.578125 0.75,17.304688 1.15625,17.277344 L17.839844,16.144531 L24.070313,0.628906 C24.222656,0.25 24.59375,0 25,0 C25.40625,0 25.777344,0.25 25.929688,0.628906 L32.160156,16.144531 L48.84375,17.277344 C49.25,17.304688 49.601563,17.578125 49.726563,17.964844 C49.851563,18.355469 49.730469,18.777344 49.417969,19.042969 L36.585938,29.765625 L40.664063,45.980469 C40.765625,46.378906 40.613281,46.792969 40.28125,47.035156 C40.109375,47.160156 39.902344,47.226563 39.695313,47.226563 Z" transform="translate(0 1)"/>
        </g>
    </svg>

    <svg class="icon-svg" viewBox="0 0 50 50">
        <g id="icon-chevron-circle-right" class="icon">
            <path fill="#ffffff" d="M23,0 C10.316406,0 0,10.316406 0,23 C0,35.683594 10.316406,46 23,46 C35.683594,46 46,35.683594 46,23 C46,10.316406 35.683594,0 23,0 Z M30.707031,23.707031 L20.707031,33.707031 C20.511719,33.902344 20.257813,34.0000002 20.0000002,34.0000002 C19.742188,34.0000002 19.488281,33.902344 19.292969,33.707031 C18.902344,33.316406 18.902344,32.683594 19.292969,32.292969 L28.585938,23.0000002 L19.292969,13.707031 C18.902344,13.316406 18.902344,12.683594 19.292969,12.292969 C19.683594,11.902344 20.316406,11.902344 20.707031,12.292969 L30.707031,22.292969 C31.097656,22.683594 31.097656,23.316406 30.707031,23.707031 Z" transform="translate(2 2)"/>
        </g>
    </svg>

    <svg class="icon-svg" viewBox="0 0 40 24">
        <g id="icon-cloud" class="icon" fill="#FFF">
            <path d="M34,8.5 C34,13.195313 30.195313,17 25.5,17 C20.804688,17 17,13.195313 17,8.5 C17,3.804688 20.804688,0 25.5,0 C30.195313,0 34,3.804688 34,8.5 Z"/>
            <path d="M40 16.894531C40 20.757813 36.867188 23.894531 33 23.894531 29.132813 23.894531 26 20.757813 26 16.894531 26 13.027344 29.132813 9.894531 33 9.894531 36.867188 9.894531 40 13.027344 40 16.894531zM14 17C14 20.867188 10.867188 24 7 24 3.132813 24 0 20.867188 0 17 0 13.132813 3.132813 10 7 10 10.867188 10 14 13.132813 14 17z"/>
            <path d="M20,9.5 C20,13.089844 17.089844,16 13.5,16 C9.910156,16 7,13.089844 7,9.5 C7,5.910156 9.910156,3 13.5,3 C17.089844,3 20,5.910156 20,9.5 Z"/>
            <path d="M28,14.894531 C28,18.757813 24.867188,21.894531 21,21.894531 C17.132813,21.894531 14,18.757813 14,14.894531 C14,11.027344 17.132813,7.894531 21,7.894531 C24.867188,7.894531 28,11.027344 28,14.894531 Z"/>
            <path d="M3,20 C3,22.210938 4.789063,24 7,24 L32,24 C34.210938,24 36,22.210938 36,20 L36,19 C36,16.789063 34.210938,15 32,15 L7,15 C4.789063,15 3,16.789063 3,19 L3,20 Z"/>
        </g>
    </svg>

    <svg class="icon-svg" viewBox="0 0 32 32">
        <g id="icon-sad-smiley" class="icon">
            <path fill="#FFF" d="M16,0 C7.16129032,0 0,7.16129032 0,16 C0,24.8387097 7.16129032,32 16,32 C24.8387097,32 32,24.8387097 32,16 C32,7.16129032 24.8387097,0 16,0 Z M16,28.9032258 C8.88387097,28.9032258 3.09677419,23.116129 3.09677419,16 C3.09677419,8.88387097 8.88387097,3.09677419 16,3.09677419 C23.116129,3.09677419 28.9032258,8.88387097 28.9032258,16 C28.9032258,23.116129 23.116129,28.9032258 16,28.9032258 Z M10.8387097,14.9677419 C11.9806452,14.9677419 12.9032258,14.0451613 12.9032258,12.9032258 C12.9032258,11.7612903 11.9806452,10.8387097 10.8387097,10.8387097 C9.69677419,10.8387097 8.77419355,11.7612903 8.77419355,12.9032258 C8.77419355,14.0451613 9.69677419,14.9677419 10.8387097,14.9677419 Z M21.1612903,10.8387097 C20.0193548,10.8387097 19.0967742,11.7612903 19.0967742,12.9032258 C19.0967742,14.0451613 20.0193548,14.9677419 21.1612903,14.9677419 C22.3032258,14.9677419 23.2258065,14.0451613 23.2258065,12.9032258 C23.2258065,11.7612903 22.3032258,10.8387097 21.1612903,10.8387097 Z M16,19.0967742 C13.4064516,19.0967742 10.9677419,20.2387097 9.30322581,22.2322581 C8.75483871,22.8903226 8.84516129,23.8645161 9.50322581,24.4129032 C10.1612903,24.9548387 11.1354839,24.8709677 11.683871,24.2129032 C12.7548387,22.9290323 14.3290323,22.1870968 16,22.1870968 C17.6709677,22.1870968 19.2451613,22.9225806 20.316129,24.2129032 C20.8387097,24.8387097 21.8064516,24.9806452 22.4967742,24.4129032 C23.1548387,23.8645161 23.2387097,22.8903226 22.6967742,22.2322581 C21.0322581,20.2387097 18.5935484,19.0967742 16,19.0967742 Z"/>
        </g>
    </svg>

    <svg class="icon-svg" viewBox="0 0 39 32">
        <g id="icon-quote" class="icon">
            <path fill="url(#icon-quote)" fill-rule="evenodd" d="M8.0516129,334 C11.322597,334 13.7967658,335.354484 15.4741935,338.063492 C16.9000071,340.349218 17.6129032,343.142841 17.6129032,346.444444 C17.6129032,350.67727 16.5435591,354.486756 14.4048387,357.873016 C12.2661183,361.259276 9.01615084,363.968244 4.65483871,366 L3.52258065,363.714286 C6.12259365,362.613751 8.3661196,360.878319 10.2532258,358.507937 C12.140332,356.137554 13.083871,353.72488 13.083871,351.269841 C13.083871,350.253963 12.9580658,349.365083 12.7064516,348.603175 C11.3645094,349.703709 9.81291203,350.253968 8.0516129,350.253968 C5.78708545,350.253968 3.87904002,349.513235 2.32741935,348.031746 C0.775798694,346.550257 0,344.582023 0,342.126984 C0,339.841258 0.775798694,337.915352 2.32741935,336.349206 C3.87904002,334.783061 5.78708545,334 8.0516129,334 Z M29.4387097,334 C32.7096938,334 35.1838626,335.354484 36.8612903,338.063492 C38.2871039,340.349218 39,343.142841 39,346.444444 C39,350.67727 37.9306559,354.486756 35.7919355,357.873016 C33.6532151,361.259276 30.4032476,363.968244 26.0419355,366 L24.9096774,363.714286 C27.5096904,362.613751 29.7532164,360.878319 31.6403226,358.507937 C33.5274288,356.137554 34.4709677,353.72488 34.4709677,351.269841 C34.4709677,350.253963 34.3451625,349.365083 34.0935484,348.603175 C32.7516062,349.703709 31.2000088,350.253968 29.4387097,350.253968 C27.1741822,350.253968 25.2661368,349.513235 23.7145161,348.031746 C22.1628955,346.550257 21.3870968,344.582023 21.3870968,342.126984 C21.3870968,339.841258 22.1628955,337.915352 23.7145161,336.349206 C25.2661368,334.783061 27.1741822,334 29.4387097,334 Z" transform="translate(0 -334)"/>
        </g>
    </svg>

    <svg class="icon-svg" viewBox="0 0 16 16">
        <g id="icon-star-half-filled" class="icon" fill="none" fill-rule="evenodd" transform="translate(0 .32)">
            <path fill="url(#icon-star-half-filled-a)" d="M10,13.4728779 L8,12.2175002 L3.46750016,15.0625002 C3.35750016,15.1325002 3.215,15.1275002 3.11,15.0512499 C3.00375008,14.975 2.955,14.8412499 2.98750016,14.7137501 L4.29250016,9.525 L0.18624992,6.09375008 C0.08624992,6.01 0.04750016,5.87375008 0.08750016,5.74875008 C0.12750016,5.625 0.24,5.53750016 0.37,5.52875008 L5.70875008,5.16624992 L7.70250016,0.20124992 C7.75124992,0.08 7.87,0 8,0 C8.13,0 8.24875008,0.08 8.29750016,0.20124992 L10,4.44095536 L10,13.4728779 Z"/>
            <path fill="#DCDCDC" d="M1.15463195e-14,9.47287794 L1.15463195e-14,0.440955361 L0.29124992,1.16624992 L5.63,1.52875008 C5.76,1.53750016 5.87250016,1.625 5.91250016,1.74875008 C5.95250016,1.87375008 5.91375008,2.00875008 5.81375008,2.09375008 L1.70750016,5.525 L3.01250016,10.7137501 C3.045,10.8412499 2.99624992,10.9737501 2.89,11.0512499 C2.835,11.0912499 2.76875008,11.1125002 2.70250016,11.1125002 C2.64375008,11.1125002 2.58375008,11.0962499 2.53250016,11.0625002 L1.0658141e-14,9.47287794 Z" transform="translate(10 4)"/>
        </g>
    </svg>

    <!-- Tipp chevron  -->
    <svg class="icon-svg icon-chevron-right-filled" viewBox="0 0 50 50">
        <g id="icon-chevron-circle-right-green" class="icon">
            <path fill="#8bc34a" d="M23,0 C10.316406,0 0,10.316406 0,23 C0,35.683594 10.316406,46 23,46 C35.683594,46 46,35.683594 46,23 C46,10.316406 35.683594,0 23,0 Z M30.707031,23.707031 L20.707031,33.707031 C20.511719,33.902344 20.257813,34.0000002 20.0000002,34.0000002 C19.742188,34.0000002 19.488281,33.902344 19.292969,33.707031 C18.902344,33.316406 18.902344,32.683594 19.292969,32.292969 L28.585938,23.0000002 L19.292969,13.707031 C18.902344,13.316406 18.902344,12.683594 19.292969,12.292969 C19.683594,11.902344 20.316406,11.902344 20.707031,12.292969 L30.707031,22.292969 C31.097656,22.683594 31.097656,23.316406 30.707031,23.707031 Z" transform="translate(2 2)"/>
        </g>
    </svg>

    <!-- Danger Icon -->
    <svg class="icon-svg" viewBox="0 0 50 50">
        <g id="icon-danger" class="icon" >
            <path fill="#37474F" fill-rule="nonzero" d="M24.84375,3.4375 C24.539063,3.484375 24.273438,3.667969 24.125,3.9375 L0.125,45.5 C-0.0546875,45.8125 -0.0546875,46.195313 0.128906,46.503906 C0.308594,46.8125 0.640625,47.003906 1,47.0000587 L49,47.0000587 C49.359375,47.003906 49.691406,46.8125 49.871094,46.503906 C50.054688,46.195313 50.054688,45.8125 49.875,45.5 L25.875,3.9375 C25.671875,3.570313 25.257813,3.371094 24.84375,3.4375 Z M25,6.4375 L47.25,45 L2.75,45 L25,6.4375 Z M23.84375,18.90625 C23.628906,18.90625 23.5,19.035156 23.5,19.25 L23.5,33.71875 C23.5,33.933594 23.628906,34.09375 23.84375,34.09375 L26.15625,34.09375 C26.371094,34.09375 26.5,33.933594 26.5,33.71875 L26.5,19.25 C26.5,19.035156 26.371094,18.90625 26.15625,18.90625 L23.84375,18.90625 Z M23.625,36.96875 C23.492188,37.019531 23.4375,37.152344 23.4375,37.3125 L23.4375,39.9375 C23.4375,40.152344 23.566406,40.28125 23.78125,40.28125 L26.21875,40.28125 C26.433594,40.28125 26.5625,40.152344 26.5625,39.9375 L26.5625,37.3125 C26.5625,37.097656 26.433594,36.96875 26.21875,36.96875 L23.78125,36.96875 C23.726563,36.96875 23.667969,36.953125 23.625,36.96875 Z"/>
        </g>
    </svg>

    <!-- Newsletter Unsubscribe Heart -->
    <svg class="icon-svg" viewBox="0 0 48 48">
        <defs>
            <linearGradient id="icon-hearts-a" x1="50%" x2="50%" y1="0%" y2="100%">
                <stop offset="0%" stop-color="#F05700"/>
                <stop offset="100%" stop-color="#DD2C00"/>
            </linearGradient>
            <linearGradient id="icon-hearts-b" x1="50%" x2="50%" y1="0%" y2="100%">
                <stop offset="0%" stop-color="#FFA774"/>
                <stop offset="100%" stop-color="#FF6E40"/>
            </linearGradient>
        </defs>
        <g id="icon-heart" class="icon" fill="none" fill-rule="evenodd">
            <rect width="48" height="48"/>
            <g fill-rule="nonzero" transform="translate(4 10)">
                <path fill="url(#icon-hearts-a)" d="M31.933594,14.203125 C33.222656,12.699219 34,10.769531 34,8.652344 C34,3.871094 30.019531,0 25.105469,0 C21.492188,0 18.390625,1.984375 17,5 C15.605469,1.984375 12.507813,0 8.894531,0 C3.980469,0 0,3.871094 0,8.652344 C0,10.882813 0.875,12.910156 2.296875,14.445313 L2.289063,14.449219 L2.347656,14.5 C9.808594,22.972656 17,28 17,28 C17,28 24.519531,23.035156 31.90625,14.226563 L31.933594,14.207031 L31.933594,14.203125 Z"/>
                <path fill="#AA280E" d="M30.585938,15.761719 C29.261719,15.8125 27.632813,15.285156 25.398438,13.855469 C25.402344,11.628906 24.09375,9.496094 21.867188,8.519531 C18.84375,7.191406 15.300781,8.5 13.917969,11.433594 C12.890625,13.625 13.671875,15.621094 13.671875,15.621094 L13.695313,15.664063 C15.292969,20.992188 17.421875,25.15625 18.429688,26.984375 C20.75,25.269531 25.585938,21.414063 30.585938,15.761719 Z"/>
                <path fill="url(#icon-hearts-b)" d="M36.605469,24.484375 C37.828125,23.910156 38.859375,22.933594 39.464844,21.632813 C40.835938,18.691406 39.488281,15.234375 36.464844,13.902344 C34.238281,12.925781 31.730469,13.378906 30.011719,14.855469 C30.019531,12.625 28.707031,10.496094 26.484375,9.515625 C23.457031,8.191406 19.914063,9.5 18.535156,12.433594 C17.503906,14.621094 18.289063,16.617188 18.289063,16.617188 L18.308594,16.664063 C20.476563,23.894531 23.628906,29 23.628906,29 C23.628906,29 29.515625,27.910156 36.585938,24.496094 L36.605469,24.484375 Z"/>
            </g>
        </g>
    </svg>

    <!-- Newsletter Unsubscribe Chatbubbles -->
    <svg class="icon-svg" viewBox="0 0 48 48">
        <defs>
            <linearGradient id="icon-chat-bubbles-a" x1="50%" x2="50%" y1="0%" y2="100%">
                <stop offset="0%" stop-color="#45C7FA"/>
                <stop offset="100%" stop-color="#2196F3"/>
            </linearGradient>
            <linearGradient id="icon-chat-bubbles-b" x1="50%" x2="50%" y1="0%" y2="100%">
                <stop offset="0%" stop-color="#FFDA00"/>
                <stop offset="100%" stop-color="#FFB300"/>
            </linearGradient>
        </defs>
        <g id="icon-chat-bubbles" class="icon"  fill="none" fill-rule="evenodd">
            <rect width="48" height="48"/>
            <g fill-rule="nonzero" transform="translate(4 4)">
                <g transform="translate(10 11)">
                    <path fill="url(#icon-chat-bubbles-a)" d="M15,0 C23.284,0 30,6.044 30,13.5 C30,17.038 28.475,20.248 26.001,22.656 C26.005,22.977 26,26 30,28 C30,28 29,29 26.5,29 C21,29 19,26.5 19,26.5 L19.001,26.5 C17.725,26.817 16.388,27 15,27 C6.716,27 0,20.956 0,13.5 C0,6.044 6.716,0 15,0 Z"/>
                    <rect width="16" height="1.999" x="7" y="8" fill="#BBDEFB"/>
                    <rect width="16" height="1.999" x="7" y="13" fill="#BBDEFB"/>
                    <rect width="10" height="2" x="9" y="18" fill="#BBDEFB"/>
                    <path fill="#1E88E5" d="M20.874,8 C21.59,6.288 22,4.439 22,2.5 C22,2.176 21.968,1.86 21.947,1.541 C19.869,0.562 17.509,0 15,0 C6.716,0 0,6.044 0,13.5 C0,15.133 0.338,16.69 0.928,18.139 C1.169,17.987 1.393,17.832 1.591,17.676 C2.73,17.891 3.873,18 5,18 C8.748,18 12.209,16.881 15.021,15 L15,15 L15,13 L17.476,13 C18.395,12.092 19.204,11.088 19.867,10 L19,10 L19,8 L20.874,8 Z"/>
                    <path fill="#64B5F6" d="M7 9.999L19.867 9.999C20.256 9.36 20.585 8.69 20.874 8L7 8 7 9.999zM7 14.999L15.011 14.999C15.9 14.405 16.722 13.736 17.469 13L7 13 7 14.999z"/>
                </g>
                <path fill="url(#icon-chat-bubbles-b)" d="M15,0 C6.716,0 0,6.044 0,13.5 C0,17.038 1.525,20.248 3.999,22.656 C3.995,22.977 4,26 0,28 C0,28 1,29 3.5,29 C9,29 11,26.5 11,26.5 L10.999,26.5 C12.275,26.817 13.612,27 15,27 C23.284,27 30,20.956 30,13.5 C30,6.044 23.284,0 15,0 Z"/>
                <rect width="16" height="1.999" x="7" y="8.001" fill="#FFECB3"/>
                <rect width="16" height="2" x="7" y="13" fill="#FFECB3"/>
                <rect width="12" height="2" x="7" y="18" fill="#FFECB3"/>
            </g>
        </g>
    </svg>

    <!-- Password reset keys -->
    <svg class="icon-svg" viewBox="0 0 48 48">
        <defs>
            <linearGradient id="icon-key-a" x1="50%" x2="50%" y1="0%" y2="100%">
                <stop offset="0%" stop-color="#FFCE00"/>
                <stop offset="100%" stop-color="#FFA000"/>
            </linearGradient>
            <linearGradient id="icon-key-b" x1="50%" x2="50%" y1="0%" y2="100%">
                <stop offset="0%" stop-color="#FFCE00"/>
                <stop offset="100%" stop-color="#FFA000"/>
            </linearGradient>
        </defs>
        <g id="icon-keys" class="icon" fill="none" fill-rule="evenodd">
            <rect width="48" height="48"/>
            <g fill-rule="nonzero" transform="translate(6 7)">
                <polygon fill="url(#icon-key-a)" points="35.457 28.387 17.777 10.707 10.707 17.777 15.93 23 20 23 20 27 24 27 24 31 28 31 28 35 34.461 35 36.871 32.629"/>
                <path fill="url(#icon-key-b)" d="M2.929688,2.929688 C-0.976562,6.835938 -0.976562,13.164063 2.929688,17.070313 C6.835938,20.976563 13.164063,20.976563 17.070313,17.070313 C20.976563,13.164063 20.976563,6.835938 17.070313,2.929688 C13.164063,-0.976562 6.835938,-0.976562 2.929688,2.929688 Z M9.121094,9.121094 C7.949219,10.292969 6.050781,10.292969 4.878906,9.121094 C3.707031,7.949219 3.707031,6.050781 4.878906,4.878906 C6.050781,3.707031 7.949219,3.707031 9.121094,4.878906 C10.292969,6.050781 10.292969,7.949219 9.121094,9.121094 Z"/>
                <polygon fill="#D67C05" points="17.777 16.363 19.191 14.949 36.871 32.629 35.457 34.043"/>
                <path fill="#D67C05" d="M21.238281,14.167969 L19.652344,12.582031 C19.214844,14.226563 18.359375,15.78125 17.070313,17.070313 C15.78125,18.359375 14.226563,19.214844 12.582031,19.652344 L14.171875,21.242188 C15.773438,20.652344 17.242188,19.726563 18.484375,18.484375 C19.746094,17.222656 20.65625,15.742188 21.238281,14.167969 Z"/>
            </g>
        </g>
    </svg>

    <!-- Verified icon -->
    <svg class="icon-svg" viewBox="0 0 48 48">
        <defs>
            <linearGradient id="icon-verified-a" x1="50%" x2="50%" y1="0%" y2="100%">
                <stop offset="0%" stop-color="#83D888"/>
                <stop offset="100%" stop-color="#4CAF50"/>
            </linearGradient>
        </defs>
        <g id="icon-verified" class="icon" fill="none" fill-rule="evenodd">
            <rect width="48" height="48"/>
            <g fill-rule="nonzero" transform="translate(4 4)">
                <path fill="url(#icon-verified-a)" d="M40,20 C40,17.091 38.347,14.552 35.934,13.27 C36.593,10.759 35.951,7.967 33.991,6.008 C32.528,4.544 30.6,3.816 28.67,3.816 C28.017,3.816 27.364,3.899 26.729,4.066 C25.448,1.653 22.909,0 20,0 C17.091,0 14.552,1.653 13.27,4.066 C12.634,3.899 11.982,3.816 11.329,3.816 C9.399,3.816 7.472,4.545 6.008,6.008 C4.049,7.967 3.406,10.758 4.065,13.27 C1.653,14.552 0,17.091 0,20 C0,22.909 1.653,25.448 4.066,26.73 C3.407,29.241 4.049,32.033 6.009,33.992 C7.472,35.455 9.4,36.184 11.33,36.184 C11.983,36.184 12.636,36.101 13.271,35.934 C14.552,38.347 17.091,40 20,40 C22.909,40 25.448,38.347 26.73,35.934 C27.366,36.101 28.018,36.184 28.671,36.184 C30.601,36.184 32.528,35.455 33.992,33.992 C35.951,32.033 36.594,29.242 35.935,26.73 C38.347,25.448 40,22.909 40,20 Z"/>
                <polygon fill="#FFF" points="18 28.829 10.586 21.414 13.414 18.586 18 23.171 27.586 13.586 30.414 16.414"/>
            </g>
        </g>
    </svg>

    <!-- Crying smiley icon -->
    <svg class="icon-svg" viewBox="0 0 48 48">
        <defs>
            <linearGradient id="icon-crying-a" x1="50%" x2="50%" y1="0%" y2="100%">
                <stop offset="0%" stop-color="#FFE751"/>
                <stop offset="100%" stop-color="#FFCA28"/>
            </linearGradient>
        </defs>
        <g id="icon-crying-smiley-coloured" class="icon" fill="none" fill-rule="evenodd">
            <rect width="48" height="48"/>
            <g fill-rule="nonzero" transform="translate(4 4)">
                <path fill="url(#icon-crying-a)" d="M40,20 C40,31 31,40 20,40 C9,40 0,31 0,20 C0,9 9,0 20,0 C31,0 40,9 40,20 Z"/>
                <path fill="#6D4C41" d="M17,19 C17,21.2 15.2,23 13,23 C10.8,23 9,21.2 9,19 C9,16.8 10.8,15 13,15 C15.2,15 17,16.8 17,19 Z"/>
                <path fill="#FFF" d="M13,17.5 C13,18.3 12.3,19 11.5,19 C10.7,19 10,18.3 10,17.5 C10,16.7 10.7,16 11.5,16 C12.3,16 13,16.7 13,17.5 Z"/>
                <path fill="#6D4C41" d="M31,19 C31,21.2 29.2,23 27,23 C24.8,23 23,21.2 23,19 C23,16.8 24.8,15 27,15 C29.2,15 31,16.8 31,19 Z"/>
                <path fill="#FFF" d="M27,17.5 C27,18.3 26.3,19 25.5,19 C24.7,19 24,18.3 24,17.5 C24,16.7 24.7,16 25.5,16 C26.3,16 27,16.7 27,17.5 Z"/>
                <path fill="#B76C09" d="M25,32 L23,32 C23,30.3 21.7,29 20,29 C18.3,29 17,30.3 17,32 L15,32 C15,29.2 17.2,27 20,27 C22.8,27 25,29.2 25,32 Z"/>
            </g>
            <g fill-rule="nonzero" transform="translate(11.667 27)">
                <path fill="#64B5F6" d="M5.2,5.4 C5.2,6.84 4.04,8 2.6,8 C1.16,8 0,6.84 0,5.4 C0,3.96 2.6,0 2.6,0 C2.6,0 5.2,3.96 5.2,5.4 Z"/>
                <path fill="#BBDEFB" d="M2.6,7 C1.72,7 1,6.28 1,5.4 C1,5.18 1.18,5 1.4,5 C1.62,5 1.8,5.18 1.8,5.4 C1.8,5.84 2.16,6.2 2.6,6.2 C2.82,6.2 3,6.38 3,6.6 C3,6.82 2.82,7 2.6,7 Z"/>
            </g>
        </g>
    </svg>

    <!-- Sad smiley icon -->
    <svg class="icon-svg" viewBox="0 0 48 48">
        <defs>
            <linearGradient id="icon-sad-a" x1="50%" x2="50%" y1="0%" y2="100%">
                <stop offset="0%" stop-color="#FFE751"/>
                <stop offset="100%" stop-color="#FFCA28"/>
            </linearGradient>
        </defs>
        <g id="icon-sad-smiley-coloured" class="icon" fill="none" fill-rule="evenodd">
            <rect width="48" height="48"/>
            <g fill-rule="nonzero" transform="translate(4 4)">
                <path fill="url(#icon-sad-a)" d="M40,20 C40,31 31,40 20,40 C9,40 0,31 0,20 C0,9 9,0 20,0 C31,0 40,9 40,20 Z"/>
                <path fill="#6D4C41" d="M17,19 C17,21.2 15.2,23 13,23 C10.8,23 9,21.2 9,19 C9,16.8 10.8,15 13,15 C15.2,15 17,16.8 17,19 Z"/>
                <path fill="#FFF" d="M13,17.5 C13,18.3 12.3,19 11.5,19 C10.7,19 10,18.3 10,17.5 C10,16.7 10.7,16 11.5,16 C12.3,16 13,16.7 13,17.5 Z"/>
                <path fill="#6D4C41" d="M31,19 C31,21.2 29.2,23 27,23 C24.8,23 23,21.2 23,19 C23,16.8 24.8,15 27,15 C29.2,15 31,16.8 31,19 Z"/>
                <path fill="#FFF" d="M27,17.5 C27,18.3 26.3,19 25.5,19 C24.7,19 24,18.3 24,17.5 C24,16.7 24.7,16 25.5,16 C26.3,16 27,16.7 27,17.5 Z"/>
                <path fill="#B76C09" d="M25,32 L23,32 C23,30.3 21.7,29 20,29 C18.3,29 17,30.3 17,32 L15,32 C15,29.2 17.2,27 20,27 C22.8,27 25,29.2 25,32 Z"/>
            </g>
        </g>
    </svg>

    <!-- Account verification warning -->
    <svg class="icon-svg" viewBox="0 0 48 48">
        <defs>
            <linearGradient id="icon-warning-a" x1="50%" x2="50%" y1="0%" y2="100%">
                <stop offset="0%" stop-color="#FFE211"/>
                <stop offset="100%" stop-color="#FFC107"/>
            </linearGradient>
        </defs>
        <g id="icon-warning-sign" class="icon" fill="none" fill-rule="evenodd">
            <rect width="48" height="48"/>
            <g fill-rule="nonzero" transform="translate(6 8)">
                <path fill="url(#icon-warning-a)" d="M34,32 L2,32 C1.283,32 0.623,31.617 0.266,30.996 C-0.09,30.375 -0.088,29.611 0.273,28.992 L16.273,0.992 C16.631,0.378 17.289,0 18,0 C18.711,0 19.369,0.378 19.728,0.992 L35.728,28.992 C36.089,29.611 36.091,30.375 35.735,30.996 C35.379,31.617 34.716,32 34,32 Z"/>
                <path fill="#5D4037" d="M16,26.142 C16,25.873 16.047,25.627 16.143,25.396 C16.237,25.168 16.372,24.97 16.546,24.804 C16.717,24.636 16.928,24.505 17.17,24.411 C17.414,24.319 17.688,24.27 17.994,24.27 C18.3,24.27 18.576,24.319 18.822,24.411 C19.072,24.505 19.283,24.636 19.454,24.804 C19.629,24.97 19.764,25.168 19.857,25.396 C19.953,25.627 20,25.873 20,26.142 C20,26.412 19.953,26.658 19.857,26.882 C19.763,27.107 19.628,27.301 19.454,27.47 C19.283,27.636 19.072,27.766 18.822,27.862 C18.576,27.954 18.3,28 17.994,28 C17.687,28 17.414,27.954 17.17,27.861 C16.928,27.765 16.717,27.635 16.546,27.469 C16.371,27.3 16.236,27.106 16.143,26.881 C16.047,26.657 16,26.411 16,26.142 L16,26.142 Z M19.48,22 L16.507,22 L16.086,10 L19.9,10 L19.48,22 Z"/>
            </g>
        </g>
    </svg>

    <!-- Register email -->
    <svg class="icon-svg" viewBox="0 0 48 48">
        <defs>
            <linearGradient id="icon-envelope-a" x1="50%" x2="50%" y1="0%" y2="100%">
                <stop offset="0%" stop-color="#B0C3CB"/>
                <stop offset="100%" stop-color="#78909C"/>
            </linearGradient>
            <linearGradient id="icon-envelope-b" x1="50%" x2="50%" y1="0%" y2="100%">
                <stop offset="0%" stop-color="#E9EEF0"/>
                <stop offset="100%" stop-color="#CFD8DC"/>
            </linearGradient>
        </defs>
        <g id="icon-email" class="icon" fill="none" fill-rule="evenodd">
            <rect width="48" height="48"/>
            <g fill-rule="nonzero" transform="translate(4 3)">
                <path fill="url(#icon-envelope-a)" d="M4,41 C1.789063,41 0,39.210938 0,37 L0,16.082031 C0,14.777344 0.636719,13.554688 1.707031,12.808594 L20,0 L38.292969,12.808594 C39.363281,13.554688 40,14.777344 40,16.082031 L40,37 C40,39.210938 38.210938,41 36,41 L4,41 Z"/>
                <polygon fill="#FFF" points="8 11 32 11 32 33 8 33"/>
                <path fill="url(#icon-envelope-b)" d="M36,41 L4,41 C1.789063,41 0,39.210938 0,37 L0,17 L20,30 L40,17 L40,37 C40,39.210938 38.210938,41 36,41"/>
            </g>
            <g transform="translate(19.333 16.667)">
                <path fill="#03A9F4" fill-rule="nonzero" stroke="#03A9F4" stroke-width=".5" d="M4.4724031,3.13557756 L4.39968992,3.18521452 C3.45144016,3.83613457 2.88726295,4.89478129 2.88682171,6.0240264 C2.88682171,6.05676568 2.88682171,6.08844884 2.88682171,6.12013201 C1.78356309,6.71446029 1.08280085,7.82961621 1.04186047,9.05610561 C0.453643411,8.08132013 -4.29878355e-13,6.78336634 -4.29878355e-13,5.53821782 C-4.29878355e-13,3.18627063 1.75162791,2.58640264 2.66976744,2.5473034 C2.70232558,2.5473034 2.73596899,2.5473034 2.7696124,2.5473034 C2.99627789,2.54614342 3.22080724,2.58998623 3.42945736,2.67617162 C3.81581395,2.83036304 4.08170543,3.08066007 4.4724031,3.13557756 Z"/>
                <path fill="#FFC107" fill-rule="nonzero" stroke="#FFC107" stroke-width=".5" d="M8.17534884,9.08039604 C7.61317829,10.0023762 6.93162791,10.6275908 6.40093023,10.6275908 C5.30914729,10.6275908 5.16046512,10.3276568 4.61674419,10.3276568 C4.07302326,10.3276568 3.92434109,10.6275908 2.83255814,10.6275908 C2.30294574,10.6275908 1.62031008,10.0023762 1.05813953,9.08039604 L1.04403101,9.05610561 C1.08497139,7.82961621 1.78573363,6.71446029 2.88899225,6.12013201 C2.92711075,7.32891315 3.6064507,8.43205858 4.68387555,9.03475125 C5.76130039,9.63744392 7.08277757,9.65352071 8.17534884,9.07722772 L8.17534884,9.08039604 Z"/>
                <path fill="#E91E63" fill-rule="nonzero" stroke="#E91E63" stroke-width=".5" d="M9.23131783,5.53821782 C9.23131783,6.78336634 8.77875969,8.08132013 8.19054264,9.05610561 C8.19054264,9.06349835 8.18077519,9.07194719 8.17534884,9.08039604 C7.08313805,9.65989555 5.7599304,9.6453861 4.68141572,9.04208379 C3.60290103,8.43878148 2.92408196,7.33339209 2.88898598,6.12330033 C2.88898598,6.09161716 2.88898598,6.05993399 2.88898598,6.02719472 C2.88681781,4.89609909 3.45038194,3.83471951 4.39968992,3.1820462 L4.4724031,3.13240924 L4.48325581,3.13240924 C4.52752512,3.13795406 4.57210977,3.14077595 4.61674419,3.14085809 C4.65302041,3.14095429 4.68926717,3.13883793 4.72527132,3.13452145 L4.76108527,3.13452145 C4.88763238,3.11840704 5.01072874,3.08275577 5.12573643,3.02891089 C5.20821705,2.99089109 5.28852713,2.94759076 5.36992248,2.90112211 C5.66294574,2.73636964 5.97007752,2.55049505 6.4627907,2.55049505 C6.49643411,2.55049505 6.52899225,2.55049505 6.56263566,2.55049505 C7.48077519,2.58640264 9.23131783,3.18627063 9.23131783,5.53821782 Z"/>
                <path fill="#689F38" d="M6.08511628,1.03287129 C5.65100775,1.03287129 5.16806202,1.3169637 4.85333333,1.79221122 C4.53860465,2.26745875 4.47782946,2.81135314 4.65364341,3.19788779 C5.08775194,3.19260726 5.57178295,2.91485149 5.88651163,2.43854785 C6.20124031,1.96224422 6.26093023,1.42046205 6.08511628,1.03287129"/>
                <path fill="#8BC34A" d="M2.64914729,9.9475983e-14 C2.38108527,0.558679868 2.44945736,1.35075908 2.89007752,2.05306931 C3.33069767,2.75537954 4.01984496,3.17782178 4.65147287,3.19788779 C4.92062016,2.63920792 4.85224806,1.84712871 4.41162791,1.14376238 C3.97100775,0.44039604 3.28077519,0.0200660066 2.64914729,9.9475983e-14"/>
            </g>
        </g>
    </svg>

    <!-- Register female -->
    <svg class="icon-svg" viewBox="0 0 48 48">
        <defs>
            <linearGradient id="icon-female-a" x1="50%" x2="50%" y1="0%" y2="100%">
                <stop offset="0%" stop-color="#B0C3CB"/>
                <stop offset="100%" stop-color="#78909C"/>
            </linearGradient>
            <linearGradient id="icon-female-b" x1="50%" x2="50%" y1="0%" y2="100%">
                <stop offset="0%" stop-color="#FF9047"/>
                <stop offset="100%" stop-color="#FF5722"/>
            </linearGradient>
        </defs>
        <g id="icon-female" class="icon" fill="none" fill-rule="evenodd">
            <rect width="48" height="48"/>
            <g fill-rule="nonzero" transform="translate(8 4)">
                <polygon fill="#BF360C" points="8 11 24 11 24 29 8 29"/>
                <path fill="url(#icon-female-a)" d="M32,40 L0,40 C0,29 11,27 11,27 L21,27 C21,27 32,29 32,40 Z"/>
                <path fill="#FF9800" d="M16,33 C13.800781,33 11,27 11,27 L11,21 L21,21 L21,27 C21,27 18.199219,33 16,33 Z"/>
                <path fill="#FFB74D" d="M25,10 C25,2.398438 7,5 7,10 C7,11.101563 7,15.898438 7,17 C7,22 11,26 16,26 C21,26 25,22 25,17 C25,15.898438 25,11.101563 25,10 Z"/>
                <path fill="url(#icon-female-b)" d="M16,0 C9.898438,0 1,3.398438 1,23.300781 L8,28 L8,15 L20,8 L24,13 L24,28 L31,22 C31,18 30.300781,2 20,2 L19,0 L16,0 Z"/>
                <path fill="#FFB74D" d="M16,34 C11.601563,34 11,27 11,27 C11,27 13.5,31 16,31 C18.5,31 21,27 21,27 C21,27 20.398438,34 16,34 Z"/>
                <path fill="#784719" d="M21 17C21 17.550781 20.550781 18 20 18 19.449219 18 19 17.550781 19 17 19 16.449219 19.449219 16 20 16 20.550781 16 21 16.449219 21 17zM13 17C13 17.550781 12.550781 18 12 18 11.449219 18 11 17.550781 11 17 11 16.449219 11.449219 16 12 16 12.550781 16 13 16.449219 13 17z"/>
            </g>
        </g>
    </svg>

    <!-- Register male -->
    <svg class="icon-svg" viewBox="0 0 48 48">
        <defs>
            <linearGradient id="icon-male-a" x1="50%" x2="50%" y1="0%" y2="100%">
                <stop offset="0%" stop-color="#87E3FC"/>
                <stop offset="100%" stop-color="#4FC3F7"/>
            </linearGradient>
            <linearGradient id="icon-male-b" x1="50%" x2="50%" y1="0%" y2="100%">
                <stop offset="0%" stop-color="#777"/>
                <stop offset="100%" stop-color="#424242"/>
            </linearGradient>
        </defs>
        <g id="icon-male" class="icon" fill="none" fill-rule="evenodd">
            <rect width="48" height="48"/>
            <g fill-rule="nonzero" transform="translate(8 4)">
                <path fill="url(#icon-male-a)" d="M21,27 C21,27 20,31 16,31 C12,31 11,27 11,27 C11,27 0,28.984375 0,40 L32,40 C32,29.023438 21,27 21,27"/>
                <path fill="#FF9800" d="M16,33 C11,33 11,27 11,27 L11,21 L21,21 L21,27 C21,27 21,33 16,33 Z"/>
                <path fill="#FFA726" d="M27,15 C27,16.105469 26.105469,17 25,17 C23.894531,17 23,16.105469 23,15 C23,13.894531 23.894531,13 25,13 C26.105469,13 27,13.894531 27,15 M9,15 C9,13.894531 8.105469,13 7,13 C5.894531,13 5,13.894531 5,15 C5,16.105469 5.894531,17 7,17 C8.105469,17 9,16.105469 9,15"/>
                <path fill="#FFB74D" d="M25,9 C25,1.363281 7,4.027344 7,9 L7,16 C7,20.972656 11.027344,25 16,25 C20.972656,25 25,20.972656 25,16 L25,9 Z"/>
                <path fill="url(#icon-male-b)" d="M16,0 C9.925781,0 6,4.925781 6,11 L6,13.285156 L8,15 L8,10 L20,6 L24,10 L24,15 L26,13.257813 L26,11 C26,6.976563 24.960938,2.984375 20,2 L19,0 L16,0 Z"/>
                <path fill="#784719" d="M19,15 C19,14.449219 19.449219,14 20,14 C20.550781,14 21,14.449219 21,15 C21,15.550781 20.550781,16 20,16 C19.449219,16 19,15.550781 19,15 M11,15 C11,15.550781 11.449219,16 12,16 C12.550781,16 13,15.550781 13,15 C13,14.449219 12.550781,14 12,14 C11.449219,14 11,14.449219 11,15"/>
                <path fill="#01579B" d="M16,33 C21,33 22.746094,29.070313 22.949219,27.570313 C21.792969,27.148438 21,27 21,27 C21,27 20,31 16,31 C12,31 11,27 11,27 C11,27 10.203125,27.144531 9.046875,27.566406 C9.253906,29.0625 11,33 16,33 Z"/>
            </g>
        </g>
    </svg>

    <!-- Goal Icon -->
    <svg class="icon-svg" viewBox="0 0 48 48">
        <defs>
            <linearGradient id="icon-goal-a" x1="50%" x2="50%" y1="0%" y2="100%">
                <stop offset="0%" stop-color="#FF7000"/>
                <stop offset="100%" stop-color="#FF3D00"/>
            </linearGradient>
            <linearGradient id="icon-goal-b" x1="50%" x2="50%" y1="0%" y2="100%">
                <stop offset="0%" stop-color="#C3D1D7"/>
                <stop offset="100%" stop-color="#90A4AE"/>
            </linearGradient>
            <linearGradient id="icon-goal-c" x1="50%" x2="50%" y1="0%" y2="100%">
                <stop offset="0%" stop-color="#DAF4FE"/>
                <stop offset="100%" stop-color="#B3E5FC"/>
            </linearGradient>
            <linearGradient id="icon-goal-d" x1="50%" x2="50%" y1="0%" y2="100%">
                <stop offset="0%" stop-color="#8DA7B2"/>
                <stop offset="100%" stop-color="#546E7A"/>
            </linearGradient>
            <linearGradient id="icon-goal-e" x1="50%" x2="50%" y1="0%" y2="100%">
                <stop offset="0%" stop-color="#F05700"/>
                <stop offset="100%" stop-color="#DD2C00"/>
            </linearGradient>
            <linearGradient id="icon-goal-f" x1="50%" x2="50%" y1="0%" y2="100%">
                <stop offset="0%" stop-color="#B7ECFD"/>
                <stop offset="100%" stop-color="#81D4FA"/>
            </linearGradient>
        </defs>
        <g id="icon-goal" class="icon" fill="none" fill-rule="evenodd">
            <rect width="48" height="48"/>
            <g fill-rule="nonzero" transform="translate(0 4)">
                <polygon fill="url(#icon-goal-a)" points="25 2 34 6 25 10"/>
                <rect width="2" height="15" x="23" fill="#5D4037"/>
                <polygon fill="url(#icon-goal-b)" points="48 40 24 40 31.61 26.682 34 28 40 28 41.35 28.365"/>
                <path fill="url(#icon-goal-c)" d="M41.35,28.365 L41,31.792 L37,28.714 L34,31.792 L31.61,26.682 L35.137,20.507 C35.523,19.831 36.476,19.831 36.863,20.507 L41.35,28.365 Z"/>
                <polygon fill="url(#icon-goal-b)" points="0 40 24 40 16.39 26.682 14 28 8 28 6.65 28.365"/>
                <path fill="url(#icon-goal-c)" d="M6.65,28.365 L7,31.792 L11,28.714 L14,31.792 L16.39,26.682 L12.863,20.507 C12.477,19.831 11.524,19.831 11.137,20.507 L6.65,28.365 Z"/>
                <polygon fill="url(#icon-goal-d)" points="40 40 8 40 14.84 28.15 18 26 30 26 33.16 28.15"/>
                <rect width="2" height="8" x="23" y="2" fill="url(#icon-goal-e)"/>
                <path fill="url(#icon-goal-f)" d="M33.16,28.15 L31,30 L27.5,27 L24,30 L20.5,27 L17,30 L14.84,28.15 L14.95,27.95 L22.27,15.24 C23.22,13.59 24.78,13.59 25.73,15.24 L33.05,27.95 L33.16,28.15 Z"/>
            </g>
        </g>
    </svg>

    <!-- Cancel filled white -->
    <svg class="icon-svg" viewBox="0 0 50 50">
        <g id="icon-cancel-filled" class="icon" fill="#ffffff" fill-rule="evenodd">
            <path fill="#ffffff" fill-rule="evenodd" d="M25 3C12.87 3 3 12.87 3 25s9.87 22 22 22 22-9.87 22-22S37.13 3 25 3zm8.71 29.29c.39.39.39 1.03 0 1.42-.2.19-.45.29-.71.29-.26 0-.51-.1-.71-.29L25 26.42l-7.29 7.29c-.2.19-.45.29-.71.29-.26 0-.51-.1-.71-.29-.39-.39-.39-1.03 0-1.42L23.58 25l-7.29-7.29c-.39-.39-.39-1.03 0-1.42.39-.39 1.03-.39 1.42 0L25 23.58l7.29-7.29c.39-.39 1.03-.39 1.42 0 .39.39.39 1.03 0 1.42L26.42 25l7.29 7.29z"/>
        </g>
    </svg>

    <!-- Cancel border -->
    <svg class="icon-svg" viewBox="0 0 50 50">
        <g id="icon-cancel-border" class="icon">
            <path fill="#ffffff" d="M22,0 C9.86158,0 0,9.86158 0,22 C0,34.13842 9.86158,44 22,44 C34.13842,44 44,34.13842 44,22 C44,9.86158 34.13842,0 22,0 Z M22,2 C33.05754,2 42,10.94246 42,22 C42,33.05754 33.05754,42 22,42 C10.94246,42 2,33.05754 2,22 C2,10.94246 10.94246,2 22,2 Z M13.990234,12.990234 C13.5833109,12.990341 13.2170251,13.2369897 13.0639032,13.6140044 C12.9107814,13.9910191 13.0013576,14.4232191 13.292969,14.707031 L20.585938,22 L13.292969,29.292969 C13.0317282,29.5437856 12.9264934,29.916236 13.0178502,30.2666781 C13.109207,30.6171201 13.3828799,30.890793 13.7333219,30.9821498 C14.083764,31.0735066 14.4562144,30.9682718 14.707031,30.707031 L22,23.414062 L29.292969,30.707031 C29.5437856,30.9682718 29.916236,31.0735066 30.2666781,30.9821498 C30.6171201,30.890793 30.890793,30.6171201 30.9821498,30.2666781 C31.0735066,29.916236 30.9682718,29.5437856 30.707031,29.292969 L23.414062,22 L30.707031,14.707031 C31.0027915,14.4195397 31.09172,13.979965 30.9309658,13.6001181 C30.7702116,13.2202713 30.3927526,12.9780755 29.980469,12.990234 C29.7206703,12.9979753 29.4740905,13.1065547 29.292969,13.292969 L22,20.585938 L14.707031,13.292969 C14.51876,13.099436 14.2602359,12.9902498 13.990234,12.990234 Z" transform="translate(3 3)"/>
        </g>
    </svg>

    <!-- Cancel red -->
    <svg class="icon-svg" viewBox="0 0 50 50">
        <g id="icon-cancel-filled-red" class="icon" fill="none" fill-rule="evenodd">
            <path d="M0 0h50v50H0z"/>
            <path fill="#ef5350" d="M25 3C12.87 3 3 12.87 3 25s9.87 22 22 22 22-9.87 22-22S37.13 3 25 3zm8.71 29.29c.39.39.39 1.03 0 1.42-.2.19-.45.29-.71.29-.26 0-.51-.1-.71-.29L25 26.42l-7.29 7.29c-.2.19-.45.29-.71.29-.26 0-.51-.1-.71-.29-.39-.39-.39-1.03 0-1.42L23.58 25l-7.29-7.29c-.39-.39-.39-1.03 0-1.42.39-.39 1.03-.39 1.42 0L25 23.58l7.29-7.29c.39-.39 1.03-.39 1.42 0 .39.39.39 1.03 0 1.42L26.42 25l7.29 7.29z"/>
        </g>
    </svg>

    <!-- Check white border icon -->
    <svg class="icon-svg" viewBox="0 0 50 50">
        <g id="icon-check-white-border" class="icon" fill="#ffffff" fill-rule="evenodd">
            <path d="M25 3C12.862 3 3 12.862 3 25s9.862 22 22 22 22-9.862 22-22S37.138 3 25 3zm0 2c11.058 0 20 8.942 20 20s-8.942 20-20 20S5 36.058 5 25 13.942 5 25 5zm9.988 9.988a1 1 0 0 0-.816.451L23.97 30.477 16.68 23.71a1 1 0 1 0-1.36 1.467l8.996 8.347 11.512-16.964a1 1 0 0 0-.84-1.573z"/>
        </g>
    </svg>

    <!-- Check white filled icon -->
    <svg class="icon-svg" viewBox="0 0 50 50">
        <g id="icon-check-white-filled" class="icon" fill="none" fill-rule="evenodd">
            <path d="M0 0h50v50H0z"/>
            <path fill="#ffffff" d="M25 3C12.87 3 3 12.87 3 25s9.87 22 22 22 22-9.87 22-22S37.13 3 25 3zm10.83 13.56L24.32 33.53l-9-8.35c-.4-.38-.43-1.01-.05-1.42.37-.4 1.01-.42 1.41-.05l7.29 6.76 10.2-15.03a1 1 0 1 1 1.66 1.12z"/>
        </g>
    </svg>

    <!-- Date icon -->
    <svg class="icon-svg" viewBox="0 0 50 50">
        <g id="icon-date" class="icon" fill="none" fill-rule="evenodd">
            <rect width="50" height="50"/>
            <path fill="#37474F" fill-rule="nonzero" d="M10,0 C8.90625,0 8,0.90625 8,2 L8,4 L2,4 C0.839844,4 0,4.839844 0,6 L0,13 L46,13 L46,6 C46,4.839844 45.160156,4 44,4 L38,4 L38,2 C38,0.90625 37.09375,0 36,0 L34,0 C32.90625,0 32,0.90625 32,2 L32,4 L14,4 L14,2 C14,0.90625 13.09375,0 12,0 L10,0 Z M10,2 L12,2 L12,8 L10,8 L10,2 Z M34,2 L36,2 L36,8 L34,8 L34,2 Z M0,15 L0,46 C0,47.105469 0.894531,48 2,48 L44,48 C45.105469,48 46,47.105469 46,46 L46,15 L0,15 Z M22.980469,22.925781 L24.65625,22.925781 L24.65625,35.527344 L22.40625,35.527344 L22.40625,26.636719 L19.308594,26.636719 L19.308594,25.015625 C19.742188,25.015625 20.160156,24.976563 20.566406,24.90625 C20.976563,24.835938 21.347656,24.714844 21.675781,24.546875 C22.003906,24.378906 22.289063,24.164063 22.519531,23.898438 C22.753906,23.632813 22.910156,23.308594 22.980469,22.925781 Z" transform="translate(2 1)"/>
        </g>
    </svg>

    <!-- Trophy icon -->
    <svg class="icon-svg" viewBox="0 0 48 48">
        <defs>
            <linearGradient id="icon-trophy-a" x1="50%" x2="50%" y1="0%" y2="100%">
                <stop offset="0%" stop-color="#FFDE90"/>
                <stop offset="100%" stop-color="#FFBA57"/>
            </linearGradient>
            <linearGradient id="icon-trophy-b" x1="50%" x2="50%" y1="0%" y2="100%">
                <stop offset="0%" stop-color="#FFDE90"/>
                <stop offset="100%" stop-color="#FFBA57"/>
            </linearGradient>
            <linearGradient id="icon-trophy-c" x1="50%" x2="50%" y1="0%" y2="100%">
                <stop offset="0%" stop-color="#B28B82"/>
                <stop offset="100%" stop-color="#7A534B"/>
            </linearGradient>
            <linearGradient id="icon-trophy-d" x1="50%" x2="50%" y1="0%" y2="100%">
                <stop offset="0%" stop-color="#FFF2B8"/>
                <stop offset="100%" stop-color="#FFE082"/>
            </linearGradient>
        </defs>
        <g id="icon-trophy" class="icon" fill="none" fill-rule="evenodd">
            <rect width="48" height="48"/>
            <g fill-rule="nonzero" transform="translate(5 2)">
                <polygon fill="#FFA000" points="21 32 20 34 19 32 18 24 22 24"/>
                <path fill="#FBC02D" d="M25,42 C25,43.105469 24.105469,44 23,44 L17,44 C15.894531,44 15,43.105469 15,42 L15,35 C15,33.894531 19,32 19,32 L21,32 C21,32 25,33.894531 25,35 L25,42 Z"/>
                <polygon fill="#E5A24A" points="21 32 21 33 19 33 19 32 18 24 22 24"/>
                <path fill="#E5A24A" d="M15.710938 22.972656C15.203125 22.84375 3.292969 19.734375 1.320313 10.203125.441406 5.957031 1.527344 3.507813 2.597656 2.199219 3.914063.578125 5.714844 0 6.953125 0 8.617188 0 9.898438.457031 10.773438 1.359375 11.871094 2.496094 11.855469 3.878906 11.851563 4.035156 11.851563 5.605469 10.785156 8 7.851563 8 7.726563 8 7.09375 7.980469 6.4375 7.636719 5.480469 7.132813 4.953125 6.195313 4.953125 5L6.953125 5C6.953125 5.574219 7.179688 5.765625 7.371094 5.867188 7.597656 5.984375 7.851563 6 7.851563 6 9.753906 6 9.851563 4.332031 9.851563 4 9.851563 3.949219 9.851563 3.269531 9.316406 2.730469 8.835938 2.246094 8.039063 2 6.953125 2 6.351563 2 5.085938 2.308594 4.144531 3.460938 3.011719 4.855469 2.710938 7.046875 3.277344 9.796875 5 18.113281 16.085938 21.003906 16.199219 21.027344L15.710938 22.972656zM24.089844 23L23.492188 21.09375C23.589844 21.0625 33.5625 17.828125 36.398438 9.714844 37.265625 7.234375 37.207031 5.273438 36.21875 3.882813 35.261719 2.535156 33.644531 2.046875 32.789063 2.046875 29.824219 2.046875 29.789063 3.964844 29.789063 4.046875 29.796875 4.507813 29.964844 6.046875 31.789063 6.046875 32.238281 6.035156 32.789063 5.851563 32.789063 5.046875L34.789063 5.046875C34.789063 7.246094 32.996094 8.046875 31.789063 8.046875 28.855469 8.046875 27.789063 5.652344 27.789063 4.046875 27.789063 2.664063 28.835938.046875 32.789063.046875 34.3125.046875 36.542969.882813 37.851563 2.722656 38.800781 4.0625 39.648438 6.480469 38.289063 10.375 35.113281 19.449219 24.539063 22.859375 24.089844 23z"/>
                <path fill="url(#icon-trophy-a)" d="M25,37 L15,37 L15,35 C15,33.894531 19,32 19,32 L21,32 C21,32 25,33.894531 25,35 L25,37 Z"/>
                <path fill="url(#icon-trophy-b)" d="M30,1 C30,9 27.914063,26 20,26 C12.085938,26 10,9 10,1 L30,1 Z"/>
                <polygon fill="#FFECB3" points="21 17 19 17 19 9.609 17 10.273 17 8.516 20.813 7 21 7"/>
                <polygon fill="url(#icon-trophy-c)" points="13 36 27 36 27 44 13 44"/>
                <polygon fill="url(#icon-trophy-d)" points="15 39 25 39 25 41 15 41"/>
            </g>
        </g>
    </svg>

    <!-- Lock icon -->
    <svg class="icon-svg" viewBox="0 0 48 48">
        <defs>
            <linearGradient id="icon-lock-open-a" x1="50%" x2="50%" y1="0%" y2="100%">
                <stop offset="0%" stop-color="#777"/>
                <stop offset="100%" stop-color="#424242"/>
            </linearGradient>
            <linearGradient id="icon-lock-open-b" x1="50%" x2="50%" y1="0%" y2="100%">
                <stop offset="0%" stop-color="#FDC000"/>
                <stop offset="100%" stop-color="#FB8C00"/>
            </linearGradient>
        </defs>
        <g id="icon-lock" class="icon" fill="none" fill-rule="evenodd">
            <rect width="48" height="48"/>
            <g fill-rule="nonzero" transform="translate(8 4)">
                <path fill="url(#icon-lock-open-a)" d="M16,0 C10.5,0 6,4.5 6,10 L6,14 L10,14 L10,10 C10,6.699219 12.699219,4 16,4 C19.300781,4 22,6.699219 22,10 L26,10 C26,4.5 21.5,0 16,0 Z"/>
                <path fill="url(#icon-lock-open-b)" d="M28,40 L4,40 C1.800781,40 0,38.199219 0,36 L0,18 C0,15.800781 1.800781,14 4,14 L28,14 C30.199219,14 32,15.800781 32,18 L32,36 C32,38.199219 30.199219,40 28,40 Z"/>
                <path fill="#C76E00" d="M19,27 C19,28.65625 17.65625,30 16,30 C14.34375,30 13,28.65625 13,27 C13,25.34375 14.34375,24 16,24 C17.65625,24 19,25.34375 19,27 Z"/>
            </g>
        </g>
    </svg>

    <!-- Success-Badge icon -->
    <svg class="icon-svg" viewBox="0 0 48 48">
        <defs>
            <linearGradient id="icon-badge-a" x1="50%" x2="50%" y1="0%" y2="100%">
                <stop offset="0%" stop-color="#FF7000"/>
                <stop offset="100%" stop-color="#FF3D00"/>
            </linearGradient>
            <linearGradient id="icon-badge-b" x1="50%" x2="50%" y1="0%" y2="100%">
                <stop offset="0%" stop-color="#FFCE00"/>
                <stop offset="100%" stop-color="#FFA000"/>
            </linearGradient>
            <linearGradient id="icon-badge-c" x1="50%" x2="50%" y1="0%" y2="100%">
                <stop offset="0%" stop-color="#FFDA00"/>
                <stop offset="100%" stop-color="#FFB300"/>
            </linearGradient>
            <linearGradient id="icon-badge-d" x1="50%" x2="50%" y1="0%" y2="100%">
                <stop offset="0%" stop-color="#FFE751"/>
                <stop offset="100%" stop-color="#FFCA28"/>
            </linearGradient>
        </defs>
        <g id="icon-success-badge" class="icon" fill="none" fill-rule="evenodd">
            <rect width="48" height="48"/>
            <g fill-rule="nonzero" transform="translate(7 3)">
                <polygon fill="url(#icon-badge-a)" points="27 24 7 24 7 42 17 39 27 42"/>
                <path fill="#DD2C00" d="M27,28.332 L26.503,28.343 C24.675,28.381 23.019,29.338 22.07,30.904 L21.789,31.369 C21.424,31.972 20.655,32.179 20.039,31.84 L19.561,31.576 C18.759,31.135 17.88,30.914 17.001,30.914 C16.121,30.914 15.241,31.135 14.438,31.577 L13.965,31.838 C13.348,32.177 12.577,31.971 12.212,31.368 L11.931,30.903 C10.984,29.338 9.327,28.381 7.499,28.343 L7,28.332 L7,32.333 L7.415,32.342 C7.866,32.351 8.275,32.587 8.509,32.974 L8.791,33.439 C10.27,35.882 13.387,36.719 15.896,35.341 L16.371,35.079 C16.767,34.862 17.239,34.862 17.631,35.078 L18.11,35.342 C18.925,35.79 19.805,36.004 20.673,36.004 C22.471,36.004 24.215,35.087 25.213,33.437 L25.493,32.973 C25.727,32.586 26.137,32.35 26.589,32.341 L27,32.332 L27,28.332 Z"/>
                <path fill="url(#icon-badge-b)" d="M33.325,18.596 C32.778,17.603 32.778,16.398 33.325,15.405 L33.587,14.929 C34.442,13.374 33.92,11.42 32.4,10.501 L31.935,10.219 C30.965,9.631 30.363,8.589 30.339,7.456 L30.327,6.912 C30.291,5.137 28.861,3.707 27.086,3.671 L26.542,3.659 C25.408,3.636 24.365,3.033 23.779,2.063 L23.497,1.598 C22.578,0.079 20.624,-0.444 19.069,0.411 L18.593,0.673 C17.6,1.22 16.395,1.22 15.402,0.673 L14.927,0.412 C13.372,-0.443 11.419,0.08 10.5,1.599 L10.218,2.064 C9.63,3.034 8.588,3.636 7.455,3.66 L6.911,3.672 C5.136,3.708 3.706,5.138 3.67,6.913 L3.658,7.457 C3.635,8.591 3.032,9.634 2.062,10.22 L1.597,10.502 C0.079,11.421 -0.445,13.375 0.41,14.93 L0.672,15.406 C1.219,16.399 1.219,17.604 0.672,18.597 L0.411,19.072 C-0.444,20.627 0.078,22.581 1.598,23.5 L2.063,23.782 C3.033,24.37 3.635,25.412 3.659,26.545 L3.671,27.089 C3.707,28.864 5.137,30.294 6.912,30.33 L7.456,30.342 C8.59,30.365 9.633,30.968 10.219,31.938 L10.501,32.403 C11.42,33.921 13.374,34.445 14.929,33.59 L15.405,33.328 C16.398,32.781 17.603,32.781 18.596,33.328 L19.072,33.59 C20.627,34.445 22.581,33.923 23.5,32.403 L23.782,31.938 C24.37,30.968 25.412,30.366 26.545,30.342 L27.089,30.33 C28.864,30.294 30.294,28.864 30.33,27.089 L30.342,26.545 C30.365,25.411 30.968,24.368 31.938,23.782 L32.403,23.5 C33.921,22.581 34.445,20.627 33.59,19.072 L33.325,18.596 Z"/>
                <circle cx="16.999" cy="17" r="11.077" fill="url(#icon-badge-c)"/>
                <path fill="url(#icon-badge-d)" d="M17,29.001 C10.383,29.001 5,23.618 5,17.001 C5,10.384 10.382,5 17,5 C23.618,5 29,10.383 29,17 C29,23.617 23.617,29.001 17,29.001 Z M17,7 C11.486,7 7,11.486 7,17 C7,22.514 11.486,27 17,27 C22.514,27 27,22.514 27,17 C27,11.486 22.514,7 17,7 Z"/>
            </g>
        </g>
    </svg>

    <!-- Visa icon -->
    <svg class="icon-svg" viewBox="0 0 48 48">
        <defs>
            <linearGradient id="paymenticon-visa-a" x1="16.148%" x2="85.832%" y1="42.041%" y2="58.341%">
                <stop offset="0%" stop-color="#222357"/>
                <stop offset="100%" stop-color="#254AA5"/>
            </linearGradient>
        </defs>
        <g id="icon-visa" class="icon" fill="none" fill-rule="evenodd">
            <rect width="42" height="30" x="3" y="9" fill="url(#paymenticon-visa-a)" rx="4"/>
            <path fill="#FFF" d="M24.5226,25.8926471 C24.5055,24.5708824 25.7241,23.8332353 26.6421,23.3947059 C27.5853,22.9447059 27.9021,22.6561765 27.8985,22.2538235 C27.8913,21.6379412 27.1461,21.3661765 26.4486,21.3555882 C25.2318,21.3370588 24.5244,21.6776471 23.9619,21.9352941 L23.5236,19.9244118 C24.0879,19.6694118 25.1328,19.4470588 26.2164,19.4373529 C28.7598,19.4373529 30.4239,20.6682353 30.4329,22.5767647 C30.4428,24.9988235 27.0156,25.1329412 27.039,26.2155882 C27.0471,26.5438235 27.3666,26.8941176 28.0668,26.9832353 C28.4133,27.0282353 29.37,27.0626471 30.4545,26.5729412 L30.8802,28.5185294 C30.297,28.7267647 29.5473,28.9261765 28.614,28.9261765 C26.22,28.9261765 24.5361,27.6785294 24.5226,25.8926471 M34.9707,28.7585294 C34.5063,28.7585294 34.1148,28.4929412 33.9402,28.0852941 L30.3069,19.5802941 L32.8485,19.5802941 L33.3543,20.9505882 L36.4602,20.9505882 L36.7536,19.5802941 L38.9937,19.5802941 L37.0389,28.7585294 L34.9707,28.7585294 M35.3262,26.2791176 L36.0597,22.8326471 L34.0509,22.8326471 L35.3262,26.2791176 M21.441,28.7585294 L19.4376,19.5802941 L21.8595,19.5802941 L23.862,28.7585294 L21.441,28.7585294 M17.8581,28.7585294 L15.3372,22.5114706 L14.3175,27.8232353 C14.1978,28.4161765 13.7253,28.7585294 13.2006,28.7585294 L9.0795,28.7585294 L9.0219,28.4920588 C9.8679,28.3120588 10.8291,28.0217647 11.4114,27.7111765 C11.7678,27.5214706 11.8695,27.3555882 11.9865,26.9047059 L13.9179,19.5802941 L16.4775,19.5802941 L20.4015,28.7585294 L17.8581,28.7585294" transform="matrix(1 0 0 -1 0 48.364)"/>
        </g>
    </svg>

    <!-- Amex icon -->
    <svg class="icon-svg" viewBox="0 0 48 48">
        <defs>
            <radialGradient id="paymenticon-american-express-a" cx="17.541%" cy="17.466%" r="130.602%" fx="17.541%" fy="17.466%" gradientTransform="matrix(.71429 0 0 1 .05 0)">
                <stop offset="0%" stop-color="#9DD5F6"/>
                <stop offset="7.11%" stop-color="#98D3F5"/>
                <stop offset="15.75%" stop-color="#89CEF3"/>
                <stop offset="25.16%" stop-color="#70C6EF"/>
                <stop offset="35.14%" stop-color="#4EBBEA"/>
                <stop offset="45.46%" stop-color="#23ADE3"/>
                <stop offset="50%" stop-color="#0DA6E0"/>
                <stop offset="100%" stop-color="#2E77BC"/>
            </radialGradient>
        </defs>
        <g id="icon-amex" class="icon" fill-rule="evenodd" transform="translate(3 9)">
            <rect width="42" height="30" fill="url(#paymenticon-american-express-a)" rx="4"/>
            <path fill="#FFF" fill-rule="nonzero" d="M19.253906 11L17.140625 15.683594 15.039063 11 12.34375 11 12.34375 17.726563 9.339844 11 7.066406 11 4 17.980469 5.816406 17.980469 6.484375 16.421875 9.917969 16.421875 10.601563 17.980469 14.066406 17.980469 14.066406 12.796875 16.363281 17.980469 17.925781 17.980469 20.277344 12.886719 20.277344 17.980469 22 17.980469 22 11 19.253906 11zM7.136719 14.914063L8.160156 12.476563 9.226563 14.914063 7.136719 14.914063zM34.882813 14.414063L38 11.019531 35.78125 11.019531 33.789063 13.183594 31.859375 11 25 11 25 17.980469 31.636719 17.980469 33.726563 15.671875 35.765625 18 37.976563 18 34.882813 14.414063zM30.726563 16.515625L26.71875 16.515625 26.71875 15.136719 30.554688 15.136719 30.554688 13.8125 26.71875 13.8125 26.71875 12.503906 30.949219 12.515625 32.644531 14.414063 30.726563 16.515625z"/>
        </g>
    </svg>

    <!-- Mastercard icon -->
    <svg class="icon-svg" viewBox="0 0 48 48">
        <g id="icon-mastercard" class="icon" fill="none" fill-rule="evenodd" transform="translate(3 9)">
            <rect width="42" height="30" fill="#EEE" rx="4"/>
            <polygon fill="#FF5F00" fill-rule="nonzero" points="25.803 22.536 16.812 22.536 16.812 6.911 25.803 6.911"/>
            <path fill="#EB001B" fill-rule="nonzero" d="M17.1846154,14.9842285 C17.1846154,18.1688477 18.6569231,21.0056152 20.9496866,22.8337402 C19.2730485,24.1705566 17.157037,24.968457 14.8573789,24.968457 C9.4131624,24.968457 5,20.4984375 5,14.9842285 C5,9.47001953 9.4131624,5 14.8573789,5 C17.157037,5 19.2730485,5.79790039 20.9496866,7.1347168 C18.6569231,8.9628418 17.1846154,11.7996094 17.1846154,14.9842285" transform="matrix(1 0 0 -1 0 29.968)"/>
            <path fill="#F79E1B" fill-rule="nonzero" d="M37.4374644,14.9842285 C37.4374644,9.47001953 32.9977806,5 27.5208464,5 C25.2073682,5 23.0786404,5.79790039 21.3912958,7.1347168 C23.6984685,8.9628418 25.1796242,11.7996094 25.1796242,14.9842285 C25.1796242,18.1688477 23.6984685,21.0056152 21.3912958,22.8337402 C23.0786404,24.1705566 25.2073682,24.968457 27.5208464,24.968457 C32.9977806,24.968457 37.4374644,20.4984375 37.4374644,14.9842285" transform="matrix(1 0 0 -1 0 29.968)"/>
        </g>
    </svg>

    <!-- Paypal icon -->
    <svg class="icon-svg" viewBox="0 0 48 48">
        <g id="icon-paypal" class="icon" fill="none" fill-rule="evenodd">
            <rect width="42" height="30" fill="#EEE" rx="4" transform="translate(3 9)"/>
            <path fill="#179BD7" fill-rule="nonzero" d="M31.2413635,18.9464516 C31.2228473,19.0619355 31.2016861,19.18 31.1778796,19.3012903 C30.3598635,23.3987097 27.5612828,24.8141935 23.9870086,24.8141935 L22.1671377,24.8141935 C21.7300248,24.8141935 21.3616861,25.123871 21.2935731,25.5445162 L20.3618151,31.3096774 L20.0979602,32.943871 C20.0766889,33.075056 20.1153397,33.2087516 20.2037372,33.3097595 C20.2921346,33.4107674 20.4214203,33.4690322 20.557557,33.4690322 L23.7853151,33.4690322 C24.1675409,33.4690322 24.4922344,33.1980645 24.5524118,32.8303226 L24.5841538,32.6703226 L25.1918796,28.9077419 L25.2308958,28.7012903 C25.2904118,28.3322581 25.6157667,28.0612903 25.9979925,28.0612903 L26.4807344,28.0612903 C29.6079764,28.0612903 32.0560732,26.8225806 32.7715893,23.2380645 C33.0704925,21.7406452 32.9157506,20.4903226 32.1248473,19.6109678 C31.8741722,19.3389439 31.5747877,19.1137606 31.2413635,18.9464516 L31.2413635,18.9464516 Z"/>
            <path fill="#253B80" fill-rule="nonzero" d="M23.1716309,19.9262695 C23.2298564,19.5575427 23.6175981,19.925111 24,19.9262695 C24.2549346,19.9270419 25.6895863,19.9270419 28.3039551,19.9262695 C28.8799389,19.9262695 29.1555628,19.8488502 29.6462402,19.9262695 C29.9782791,19.9771807 30.4491645,19.8255844 30.769043,19.9262695 C31.010414,20.004334 31.0350409,18.84 31.2420247,18.9464516 C31.4853796,17.4322581 31.2400409,16.4012903 30.4008635,15.4677419 C29.4757183,14.44 27.8059602,14 25.6693312,14 L19.466428,14 C19.0299764,14 18.6576699,14.3096774 18.5902183,14.7309678 L16.006557,30.7083871 C15.9822027,30.8585078 16.0263888,31.0115094 16.127492,31.1271446 C16.2285952,31.2427798 16.3764938,31.3094718 16.5322828,31.3096774 L20.3618151,31.3096774 L21.3233312,25.3580645 L23.1716309,19.9262695 Z"/>
            <path fill="#222D65" fill-rule="nonzero" d="M30.3856538,18.6135484 C30.1244616,18.539833 29.8587544,18.482299 29.5901215,18.4412903 C29.059317,18.3617044 28.522855,18.323519 27.9858312,18.3270968 L23.1240248,18.3270968 C22.7417182,18.3268669 22.4163052,18.5985398 22.3575893,18.9670968 L21.3233312,25.3580645 L21.2935731,25.5445162 C21.36015,25.1241256 21.7311245,24.8139813 22.1671377,24.8141935 L23.9870086,24.8141935 C27.5612828,24.8141935 30.3598635,23.3980645 31.1778796,19.3012903 C31.2023473,19.18 31.2228473,19.0619355 31.2413635,18.9464516 C31.0255086,18.8360184 30.8005432,18.7434361 30.5688312,18.6696774 C30.5080838,18.6500128 30.4470168,18.6313007 30.3856538,18.6135484 L30.3856538,18.6135484 Z"/>
        </g>
    </svg>

    <!-- Sepa icon -->
    <svg class="icon-svg" viewBox="0 0 48 48">
        <g id="icon-sepa" class="icon" fill="none" fill-rule="evenodd">
            <rect width="42" height="30" fill="#EEE" rx="4" transform="translate(3 9)"/>
            <g transform="translate(6 19)">
                <path fill="#0B4A8E" d="M8.103 3.1302381L5.60755556 3.1302381C5.60755556 2.72702381 5.55943137 2.45642857 5.46366667 2.31869048 5.31518301 2.11488095 4.90528105 2.01285714 4.23444444 2.01285714 3.58295425 2.01285714 3.15104575 2.07154762 2.94029085 2.18904762 2.72965686 2.30690476 2.62421895 2.56321429 2.62421895 2.95785714 2.62421895 3.31511905 2.71756536 3.55035714 2.90474183 3.66309524 3.0388366 3.74309524 3.21597712 3.79011905 3.43688889 3.80416667L3.94013725 3.83916667C5.01869935 3.90964286 5.69231699 3.95928571 5.9609902 3.9875 6.81392484 4.07214286 7.43228431 4.29547619 7.81594771 4.65738095 8.11787255 4.9397619 8.29791503 5.30880952 8.35534967 5.76452381 8.38896405 6.03714286 8.40565033 6.34559524 8.40565033 6.68833333 8.40565033 7.47833333 8.32911111 8.05690476 8.17579085 8.42357143 7.8979281 9.09630952 7.27376471 9.52119048 6.30257516 9.69964286 5.89569608 9.77511905 5.27322549 9.81285714 4.4360098 9.81285714 3.03847386 9.81285714 2.06450327 9.73095238 1.5145817 9.56630952.839633987 9.36464286.394666667 8.95607143.179316993 8.34083333.059369281 7.99833333-7.72715225e-14 7.42797619-7.72715225e-14 6.62952381L2.49544444 6.62952381C2.49544444 6.71857143 2.49568627 6.78666667 2.49568627 6.83357143 2.49568627 7.25964286 2.62010784 7.53369048 2.86834641 7.65571429 3.0404085 7.73988095 3.24814052 7.78404762 3.49238889 7.78928571L4.40977124 7.78928571C4.87795425 7.78928571 5.17673529 7.76571429 5.30563072 7.71833333 5.53500654 7.62952381 5.68554575 7.48654762 5.7574902 7.28869048 5.79569935 7.16690476 5.81468301 7.00928571 5.81468301 6.81642857 5.81468301 6.38440476 5.65447059 6.12154762 5.33465033 6.0272619 5.21506536 5.99 4.65861438 5.93809524 3.6654183 5.8722619 2.86786275 5.81619048 2.31383007 5.7622619 2.00356209 5.71 1.18653922 5.55952381.642058824 5.25011905.370362745 4.78035714.131555556 4.38119048.0120915033 3.7772619.0120915033 2.96940476.0120915033 2.35416667.0766601307 1.86083333.205676471 1.4897619.334813725 1.11857143.542908497.836785714.830081699.644047619 1.2507451.348214286 1.78905882.17452381 2.44429739.122619048 2.98950327.0758333333 3.59432026.0519047619 4.25959477.0519047619 5.30696078.0519047619 6.05336928.111190476 6.4983366.228690476 7.58427451.515952381 8.12718301 1.32059524 8.12718301 2.64285714 8.12718301 2.75130952 8.1190817 2.91345238 8.103 3.1302381M21.7591438 5.00297619L23.4313987 5.00297619C23.9616111 4.98416667 24.2840915 4.94404762 24.4001699 4.88119048 24.5586895 4.79535714 24.6650948 4.62357143 24.7180556 4.36583333 24.7519118 4.19428571 24.7688399 3.93928571 24.7688399 3.60047619 24.7688399 3.18547619 24.7352255 2.87785714 24.667634 2.67690476 24.5711438 2.39547619 24.3400752 2.22404762 23.9740654 2.16178571 23.9017582 2.15238095 23.7284869 2.14738095 23.4540098 2.14738095L21.7591438 2.14738095 21.7591438 5.00297619zM19.0767647 9.81285714L19.0767647 3.55271368e-14 24.0743039 3.55271368e-14C24.7597712 3.55271368e-14 25.2828497.0551190476 25.6422092.165238095 26.4641895.418809524 27.015683.93797619 27.2981405 1.72261905 27.4439641 2.13440476 27.5168758 2.75440476 27.5168758 3.5822619 27.5168758 4.57761905 27.4359837 5.29297619 27.2760131 5.72845238 26.9554673 6.58964286 26.295634 7.08571429 25.2992941 7.21428571 25.1821275 7.23357143 24.6835948 7.25083333 23.8036961 7.26464286L23.358366 7.27928571 21.7591438 7.27928571 21.7591438 9.81285714 19.0767647 9.81285714 19.0767647 9.81285714zM32.7100556 6.2052381L31.4532647 1.95154762 30.2335948 6.2052381 32.7100556 6.2052381zM33.2428072 8.11690476L29.6563464 8.11690476 29.1745 9.81285714 26.3992582 9.81285714 29.3938399 3.55271368e-14 33.4401405 3.55271368e-14 36.4714804 9.81285714 33.7545196 9.81285714 33.2428072 8.11690476 33.2428072 8.11690476z"/>
                <path fill="#F6BC25" d="M15.3744673,1.38059524 C16.4808399,1.38059524 17.468232,1.88238095 18.1173039,2.66833333 L18.6955196,1.4477381 C17.7911961,0.606190476 16.560402,0.0873809524 15.2028889,0.0873809524 C13.0892941,0.0873809524 11.2812516,1.34416667 10.5391961,3.12321429 L9.4116634,3.12321429 L8.74590523,4.52845238 L10.196402,4.52845238 C10.1855196,4.65880952 10.1785065,4.78928571 10.1785065,4.92238095 C10.1785065,5.08345238 10.1869706,5.24261905 10.2031732,5.39988095 L9.47417647,5.39988095 L8.80853922,6.80559524 L10.5737778,6.80559524 C11.3369935,8.53964286 13.1224248,9.75702381 15.2028889,9.75702381 C16.2513431,9.75702381 17.2242255,9.4477381 18.0297614,8.91940476 L18.0297614,7.19666667 C17.3810523,7.92380952 16.432232,8.38333333 15.3744673,8.38333333 C14.1379902,8.38333333 13.0503595,7.75559524 12.4170065,6.80559524 L16.1135,6.80559524 L16.7791373,5.39988095 L11.8731307,5.39988095 C11.8478595,5.23071429 11.834317,5.05785714 11.834317,4.88178571 C11.834317,4.7627381 11.8406046,4.64488095 11.8522124,4.52845238 L17.1916993,4.52845238 L17.8573366,3.12321429 L12.3139869,3.12321429 C12.9270261,2.08154762 14.0678595,1.38059524 15.3744673,1.38059524"/>
                <path fill="#0B4A8E" d="M12.3139869,3.16547619 L17.8573366,3.16547619 L17.8185229,3.10535714 L17.1531275,4.51071429 L17.1916993,4.48642857 L11.8136405,4.48642857 L11.8095294,4.52464286 C11.7975588,4.64321429 11.7915131,4.76345238 11.7915131,4.88178571 C11.7915131,5.05559524 11.8048137,5.2322619 11.8308105,5.40619048 L11.8363725,5.4422619 L16.7791373,5.4422619 L16.7405654,5.3822619 L16.0748072,6.78761905 L16.1135,6.76333333 L12.3375654,6.76333333 L12.3812157,6.82833333 C13.0473366,7.82857143 14.1664052,8.42488095 15.3744673,8.42488095 C16.4013987,8.42488095 17.3810523,7.98761905 18.0621667,7.22440476 L17.9869575,7.19666667 L17.9869575,8.91940476 L18.0058203,8.88464286 C17.1775523,9.42761905 16.2085392,9.7147619 15.2028889,9.7147619 C13.1967876,9.7147619 11.3952745,8.56619048 10.613317,6.78857143 L10.601951,6.76333333 L8.80853922,6.76333333 L8.84771569,6.82357143 L9.51311111,5.4177381 L9.47417647,5.4422619 L10.2503301,5.4422619 L10.2456144,5.39559524 C10.2295327,5.23678571 10.2211895,5.0772619 10.2211895,4.92238095 C10.2211895,4.80321429 10.2271144,4.67547619 10.239085,4.53214286 L10.2428333,4.48642857 L8.74590523,4.48642857 L8.78447712,4.54654762 L9.45035621,3.14095238 L9.4116634,3.16547619 L10.5679739,3.16547619 L10.5787353,3.13928571 C10.9451078,2.26095238 11.5683039,1.51214286 12.3806111,0.973214286 C13.2126275,0.421547619 14.1887745,0.129880952 15.2028889,0.129880952 C16.5016373,0.129880952 17.7313431,0.608452381 18.6660163,1.47821429 L18.6564641,1.42964286 L18.0786111,2.65059524 L18.1505556,2.64178571 C17.4661765,1.81345238 16.4546013,1.33833333 15.3744673,1.33833333 C14.1038922,1.33833333 12.917232,2.01416667 12.2766242,3.10214286 L12.2393824,3.16547619 L12.3139869,3.16547619 Z M15.3744673,1.4227381 C16.4287255,1.4227381 17.4162386,1.88654762 18.0839314,2.695 L18.127098,2.7472619 L18.1563595,2.68630952 L18.7343333,1.46559524 L18.7472712,1.43785714 L18.7250229,1.41690476 C17.7745098,0.532380952 16.5236438,0.0453571429 15.2028889,0.0453571429 C14.1716046,0.0453571429 13.179134,0.34202381 12.3327288,0.903452381 C11.5062745,1.45142857 10.8724379,2.21369048 10.4998987,3.1072619 L10.5391961,3.08107143 L9.38421569,3.08107143 L9.37272876,3.10535714 L8.67879739,4.57083333 L10.196402,4.57083333 L10.153719,4.52511905 C10.1415065,4.67095238 10.1357026,4.80071429 10.1357026,4.92238095 C10.1357026,5.08011905 10.1438039,5.24238095 10.1603693,5.40404762 L10.2031732,5.35797619 L9.4470915,5.35797619 L9.43560458,5.3822619 L8.76972549,6.78761905 L8.74155229,6.84761905 L10.5737778,6.84761905 L10.5346013,6.82214286 C11.3303431,8.63047619 13.1628105,9.79916667 15.2028889,9.79916667 C16.2255882,9.79916667 17.2110458,9.5072619 18.0534608,8.95464286 L18.0724444,8.94214286 L18.0724444,7.08464286 L17.997598,7.16880952 C17.3329281,7.91369048 16.3768529,8.34083333 15.3744673,8.34083333 C14.195183,8.34083333 13.1029575,7.75809524 12.4526765,6.78214286 L12.4170065,6.84761905 L16.1408268,6.84761905 L16.1523137,6.82357143 L16.8180719,5.4177381 L16.8464869,5.35797619 L11.8731307,5.35797619 L11.9156928,5.39380952 C11.8903007,5.22369048 11.8772418,5.05154762 11.8772418,4.88178571 C11.8772418,4.76619048 11.8831667,4.64892857 11.8950163,4.5327381 L11.8522124,4.57083333 L17.2193889,4.57083333 L17.230634,4.54654762 L17.8962712,3.14095238 L17.9249281,3.08107143 L12.3139869,3.08107143 L12.3507451,3.14428571 C12.9758758,2.08238095 14.1346046,1.4227381 15.3744673,1.4227381 L15.3744673,1.4227381 Z"/>
            </g>
        </g>
    </svg>

    <!-- Chevron right blue icon -->
    <svg class="icon-svg" viewBox="0 0 10 16">
        <g id="icon-chevron-right-blue" class="icon" fill="none" fill-rule="evenodd">
            <path d="M-5 18V-2h20v20z"/>
            <path fill="#03A9F4" fill-rule="nonzero" d="M.45 13.066l2.176 2.176L9.868 8 2.626.758.451 2.934 5.517 8z"/>
        </g>
    </svg>

    <!-- Info icon -->
    <svg class="icon-svg" viewBox="0 0 50 50">
        <g id="icon-info" class="icon" fill="none" fill-rule="evenodd">
            <rect width="50.08" height="50.08"/>
            <path fill="#37474F" d="M23.036859,0 C10.3258163,0 0,10.3258163 0,23.036859 C0,35.7479016 10.3258163,46.0737179 23.036859,46.0737179 C35.7479016,46.0737179 46.0737179,35.7479016 46.0737179,23.036859 C46.0737179,10.3258163 35.7479016,0 23.036859,0 Z M23.036859,2.00320513 C34.6652885,2.00320513 44.0705128,11.4084295 44.0705128,23.036859 C44.0705128,34.6652885 34.6652885,44.0705128 23.036859,44.0705128 C11.4084295,44.0705128 2.00320513,34.6652885 2.00320513,23.036859 C2.00320513,11.4084295 11.4084295,2.00320513 23.036859,2.00320513 Z M23.036859,9.01442308 C21.3773495,9.01442308 20.0320513,10.3597213 20.0320513,12.0192308 C20.0320513,13.6787402 21.3773495,15.0240385 23.036859,15.0240385 C24.6963684,15.0240385 26.0416667,13.6787402 26.0416667,12.0192308 C26.0416667,10.3597213 24.6963684,9.01442308 23.036859,9.01442308 L23.036859,9.01442308 Z M19.0304487,19.0304487 L19.0304487,21.0336538 L20.0320513,21.0336538 L21.0336538,21.0336538 L21.0336538,34.0544872 L20.0320513,34.0544872 L19.0304487,34.0544872 L19.0304487,36.0576923 L20.0320513,36.0576923 L21.0336538,36.0576923 L25.0400641,36.0576923 L26.0416667,36.0576923 L27.0432692,36.0576923 L27.0432692,34.0544872 L26.0416667,34.0544872 L25.0400641,34.0544872 L25.0400641,19.0304487 L24.0384615,19.0304487 L20.0320513,19.0304487 L19.0304487,19.0304487 Z" transform="translate(2.003 2.003)"/>
        </g>
    </svg>

    <!-- Grey lock icon -->
    <svg class="icon-svg" viewBox="0 0 50 50">
        <g id="icon-lock-grey" class="icon" fill="none" fill-rule="evenodd">
            <rect width="50" height="50"/>
            <path fill="#37474f" d="M25,4 C18.9375,4 14,8.9375 14,15 L14,20.84375 C11.527344,23.519531 10,27.078125 10,31 C10,39.269531 16.730469,46 25,46 C33.269531,46 40,39.269531 40,31 C40,27.078125 38.472656,23.519531 36,20.84375 L36,15 C36,8.9375 31.0625,4 25,4 Z M25,6 C29.984375,6 34,10.015625 34,15 L34,19.03125 C31.488281,17.136719 28.378906,16 25,16 C21.621094,16 18.511719,17.136719 16,19.03125 L16,15 C16,10.015625 20.015625,6 25,6 Z M25,28 C26.65625,28 28,29.34375 28,31 C28,32.304688 27.164063,33.398438 26,33.8125 L26,36 C26,36.550781 25.550781,37 25,37 C24.449219,37 24,36.550781 24,36 L24,33.8125 C22.835938,33.398438 22,32.304688 22,31 C22,29.34375 23.34375,28 25,28 Z"/>
        </g>
    </svg>

    <!-- Discounted plan badge -->
    <svg class="icon-svg" viewBox="0 0 54 56">
        <defs>
            <linearGradient x1="96.492%" y1="100%" x2="3.508%" y2="0%" id="linearGradient-1">
                <stop stop-color="#263238" offset="0%"></stop>
                <stop stop-color="#37474F" offset="100%"></stop>
            </linearGradient>
        </defs>
        <g id="icon-discount-badge" class="icon" stroke="none" stroke-width="1" fill="none" fill-rule="evenodd">
            <path d="M4.54747351e-13,0 L54,0 L54,56 L28.1960339,47.8919626 C27.4153818,47.6466687 26.5782794,47.6466968 25.7976438,47.8920433 L4.54747351e-13,56 L4.54747351e-13,56 L4.54747351e-13,0 Z" id="Path" fill="url(#linearGradient-1)" fill-rule="nonzero"></path>
        </g>
    </svg>
</svg>
