<svg xmlns="http://www.w3.org/2000/svg" width="120" height="36" viewBox="0 0 120 36">
    <g fill="none" fill-rule="evenodd">
        <path fill="#37474F" fill-rule="nonzero" d="M47.5389163 7.22955665C46.8048215 7.2249858 46.0715107 7.27835343 45.3458128 7.38916256L40.8945813 17.470936 36.4669951 7.38916256C35.7969027 7.27744837 35.1187494 7.22110035 34.4394089 7.22068839 33.6327206 7.22038631 32.8269373 7.27469768 32.0275862 7.38325123L38.6423645 21.8068966 38.6423645 29.5921182 43.0758621 29.5921182 43.0758621 21.8098522 49.7881773 7.38916256C49.043052 7.28367677 48.2914708 7.23034512 47.5389163 7.22955665L47.5389163 7.22955665zM119.175369 14.1133005C118.8473 12.8250996 118.271015 11.6132935 117.478818 10.5458128 116.709284 9.54176385 115.715239 8.7319511 114.576355 8.18128079 113.247086 7.6028457 111.807909 7.32045646 110.358621 7.35369458 108.90774 7.30997803 107.465222 7.58858889 106.134975 8.16945813 104.976036 8.69073568 103.973452 9.50584481 103.226601 10.5339901 102.434454 11.5946529 101.856225 12.7992969 101.524138 14.0807882 101.134766 15.5469029 100.948789 17.0595851 100.971429 18.5763547 100.948641 20.0719413 101.130625 21.5636119 101.512315 23.0098522 101.842261 24.2801656 102.418707 25.4732283 103.208867 26.5211823 103.994878 27.5090902 104.984922 28.3156438 106.11133 28.8857143 107.440683 29.4638778 108.8798 29.7462552 110.329064 29.7133005 111.780055 29.7547142 113.222285 29.4751497 114.552709 28.8945813 115.711214 28.3726 116.713632 27.5576259 117.461084 26.5300493 118.240267 25.4876743 118.817676 24.3087968 119.163547 23.0541872 119.546412 21.6081727 119.728416 20.1163395 119.704433 18.6206897 119.732579 17.1012217 119.554604 15.5849514 119.175369 14.1133005L119.175369 14.1133005zM110.278818 26.3793197C107.15468 26.3793197 105.239409 23.5773399 105.254102 18.591133 105.268966 13.6049261 107.184236 10.8650246 110.361576 10.8679779 111.951724 10.8679779 113.101478 11.7546798 113.866995 12.9546798 114.865802 14.6467993 115.377259 16.5821525 115.344828 18.546798 115.327094 23.5891626 113.402956 26.3852217 110.278818 26.3793197L110.278818 26.3793197zM91.9389163 7.4453202L91.9211823 29.6453202C92.664734 29.7571298 93.4155765 29.813443 94.1674877 29.8137931 94.901473 29.812225 95.6343961 29.7578978 96.3605911 29.6512315L96.3871921 7.45123153C95.6432071 7.34367483 94.8926015 7.28836705 94.1408867 7.28571429 93.4040195 7.28606227 92.6681313 7.33940181 91.9389163 7.4453202L91.9389163 7.4453202zM86.1842365 7.4955665L71.0541872 7.47487685C70.9396056 8.03401296 70.8841283 8.60364655 70.88867 9.17438424 70.885784 9.72729754 70.9402628 10.2790187 71.0512315 10.8206897L79.9862069 10.8206897 70.808867 29.337931 71.0275862 29.6660099 86.1576355 29.6866995C86.2697023 29.1451485 86.3251728 28.5934152 86.3231527 28.0403941 86.3258174 27.4698862 86.2713586 26.9005446 86.1605911 26.3408867L77.391133 26.3408867 86.4029557 7.87980296 86.1842365 7.4955665zM59.7635468 7.29753695C59.0343303 7.2246251 58.2996598 7.2246251 57.5704433 7.29753695 57.2015311 7.32562916 56.8350872 7.37995371 56.4738916 7.46009852L49.7586207 29.6541872C50.4845404 29.7636577 51.217597 29.8189827 51.9517241 29.8197044 52.7043495 29.817985 53.4559344 29.7636655 54.2009852 29.6571429L55.3004926 25.2236453 61.9891626 25.2236453 63.079803 29.6571429C63.8232828 29.7695901 64.5741731 29.8259069 65.3261084 29.8256169 66.0600898 29.8239459 66.7930057 29.7696192 67.5192118 29.6630542L60.9133005 7.46305419C60.4197044 7.35369458 60.1477833 7.35369458 59.7635468 7.29753695zM56.0719212 21.8719212L58.6610837 11.8965517 61.182266 21.8719212 56.0719212 21.8719212z"/>
        <g transform="translate(.198 .092)">
            <path fill="#03A9F4" fill-rule="nonzero" stroke="#03A9F4" stroke-width=".5" d="M12.1802956,8.77536946 L11.982266,8.91428571 C9.39977017,10.7359801 7.86327065,13.6987567 7.86206897,16.8591133 C7.86206897,16.9507389 7.86206897,17.0394089 7.86206897,17.1280788 C4.85741672,18.7913929 2.94893687,21.9123188 2.83743842,25.3448276 C1.23546798,22.6167488 -4.29878355e-13,18.9842365 -4.29878355e-13,15.4995074 C-4.29878355e-13,8.91724138 4.77044335,7.23842365 7.27093596,7.12899875 C7.35960591,7.12899875 7.45123153,7.12899875 7.54285714,7.12899875 C8.16016569,7.12575236 8.7716566,7.24845284 9.33990148,7.48965517 C10.3921182,7.92118227 11.1162562,8.62167488 12.1802956,8.77536946 Z"/>
            <path fill="#FFC107" fill-rule="nonzero" stroke="#FFC107" stroke-width=".5" d="M22.2650246,25.4128079 C20.7339901,27.9931034 18.8778325,29.7428571 17.4325123,29.7428571 C14.4591133,29.7428571 14.0541872,28.9034483 12.573399,28.9034483 C11.0926108,28.9034483 10.6876847,29.7428571 7.71428571,29.7428571 C6.27192118,29.7428571 4.41280788,27.9931034 2.8817734,25.4128079 L2.84334975,25.3448276 C2.9548482,21.9123188 4.86332805,18.7913929 7.8679803,17.1280788 C7.97179352,20.5110285 9.82193119,23.5983413 12.7562269,25.2850643 C15.6905225,26.9717873 19.2894787,27.0167806 22.2650246,25.4039409 L22.2650246,25.4128079 Z"/>
            <path fill="#E91E63" fill-rule="nonzero" stroke="#E91E63" stroke-width=".5" d="M25.1408867,15.4995074 C25.1408867,18.9842365 23.9083744,22.6167488 22.3064039,25.3448276 C22.3064039,25.3655172 22.279803,25.3891626 22.2650246,25.4128079 C19.2904604,27.0346215 15.6867915,26.9940147 12.7495277,25.3055855 C9.8122639,23.6171563 7.96354482,20.5235635 7.86796322,17.1369458 C7.86796322,17.0482759 7.86796322,16.9596059 7.86796322,16.8679803 C7.86205835,13.7024448 9.39688819,10.7320198 11.982266,8.90541872 L12.1802956,8.76650246 L12.2098522,8.76650246 C12.3304168,8.78202045 12.4518401,8.7899179 12.573399,8.79014778 C12.6721949,8.79041703 12.7709106,8.78449409 12.8689655,8.77241379 L12.9665025,8.77241379 C13.3111452,8.72731527 13.64639,8.62754002 13.9596059,8.47684729 C14.1842365,8.37044335 14.4029557,8.24926108 14.6246305,8.11921182 C15.4226601,7.65812808 16.2591133,7.13793103 17.6009852,7.13793103 C17.6926108,7.13793103 17.7812808,7.13793103 17.8729064,7.13793103 C20.373399,7.23842365 25.1408867,8.91724138 25.1408867,15.4995074 Z"/>
            <path fill="#689F38" d="M16.5724138,2.89064039 C15.3901478,2.89064039 14.0748768,3.68571429 13.217734,5.01576355 C12.3605911,6.34581281 12.1950739,7.8679803 12.6738916,8.94975369 C13.8561576,8.93497537 15.1743842,8.15763547 16.0315271,6.82463054 C16.88867,5.49162562 17.0512315,3.97536946 16.5724138,2.89064039"/>
            <path fill="#8BC34A" d="M7.21477833,9.9475983e-14 C6.48472906,1.5635468 6.67093596,3.78029557 7.87093596,5.74581281 C9.07093596,7.71133005 10.9477833,8.89359606 12.6679803,8.94975369 C13.4009852,7.3862069 13.2147783,5.16945813 12.0147783,3.20098522 C10.8147783,1.23251232 8.93497537,0.0561576355 7.21477833,9.9475983e-14"/>
        </g>
    </g>
</svg>
